<svg width="17" height="14" viewBox="0 0 17 14" fill="none" xmlns="http://www.w3.org/2000/svg">
<path d="M16.3285 1.88122C15.7202 2.15155 15.0782 2.32051 14.4024 2.42189C15.0782 2.01639 15.6189 1.37435 15.8554 0.597138C15.2134 0.968846 14.5037 1.23918 13.7265 1.40814C13.1183 0.766096 12.2397 0.360596 11.2935 0.360596C9.4688 0.360596 7.98197 1.84743 7.98197 3.67217C7.98197 3.94251 8.01576 4.17905 8.08334 4.41559C5.34622 4.28042 2.87943 2.96255 1.22364 0.935053C0.953311 1.44193 0.784353 1.98259 0.784353 2.59084C0.784353 3.73976 1.35881 4.75351 2.27118 5.36176C1.73052 5.32796 1.22364 5.1928 0.750561 4.95626L0.750561 4.99005C0.750561 6.61204 1.89948 7.96371 3.4201 8.26783C3.14977 8.33542 2.84564 8.36921 2.54152 8.36921C2.33877 8.36921 2.10223 8.33542 1.89948 8.30163C2.33877 9.6195 3.55527 10.5995 5.0083 10.5995C3.85939 11.478 2.44014 12.0187 0.885728 12.0187C0.615395 12.0187 0.345062 12.0187 0.108521 11.9849C1.59535 12.9311 3.31872 13.4717 5.21105 13.4717C11.3273 13.4717 14.6727 8.403 14.6727 4.01009C14.6727 3.87492 14.6727 3.70597 14.6727 3.5708C15.3147 3.13151 15.8892 2.55705 16.3285 1.88122Z" fill="#0F172A"/>
</svg>
