<svg width="20" height="21" viewBox="0 0 20 21" fill="none" xmlns="http://www.w3.org/2000/svg">
<path d="M9.95995 2.19851C12.5855 2.19851 12.8964 2.20835 13.9336 2.25564C14.5572 2.26327 15.1749 2.37778 15.7598 2.59419C16.1839 2.75777 16.5691 3.00836 16.8906 3.32982C17.2121 3.65128 17.4626 4.03649 17.6262 4.46065C17.8426 5.04556 17.9571 5.66324 17.9648 6.28685C18.0116 7.32403 18.0219 7.63495 18.0219 10.2605C18.0219 12.886 18.0121 13.1969 17.9648 14.2341C17.9571 14.8577 17.8426 15.4754 17.6262 16.0603C17.4626 16.4844 17.2121 16.8696 16.8906 17.1911C16.5691 17.5126 16.1839 17.7632 15.7598 17.9267C15.1749 18.1431 14.5572 18.2576 13.9336 18.2653C12.8968 18.3121 12.5859 18.3224 9.95995 18.3224C7.33397 18.3224 7.02305 18.3126 5.98633 18.2653C5.36273 18.2576 4.74504 18.1431 4.16014 17.9267C3.73597 17.7632 3.35076 17.5126 3.0293 17.1911C2.70784 16.8696 2.45725 16.4844 2.29367 16.0603C2.07726 15.4754 1.96276 14.8577 1.95512 14.2341C1.9083 13.1969 1.898 12.886 1.898 10.2605C1.898 7.63495 1.90783 7.32403 1.95512 6.28685C1.96276 5.66324 2.07726 5.04556 2.29367 4.46065C2.45725 4.03649 2.70784 3.65128 3.0293 3.32982C3.35076 3.00836 3.73597 2.75777 4.16014 2.59419C4.74504 2.37778 5.36272 2.26327 5.98633 2.25564C7.02352 2.20881 7.33444 2.19851 9.95995 2.19851ZM9.95995 0.426636C7.29089 0.426636 6.95469 0.437874 5.90579 0.485636C5.08965 0.50187 4.28216 0.6564 3.51769 0.942653C2.8619 1.18974 2.26792 1.57693 1.77719 2.07723C1.27643 2.56814 0.888904 3.16246 0.641668 3.81868C0.355414 4.58315 0.200884 5.39063 0.184651 6.20678C0.137825 7.25473 0.126587 7.59094 0.126587 10.26C0.126588 12.929 0.137826 13.2653 0.185588 14.3141C0.201821 15.1303 0.356352 15.9378 0.642605 16.7022C0.889567 17.3584 1.27677 17.9527 1.77719 18.4437C2.26819 18.9441 2.8625 19.3313 3.51863 19.5783C4.2831 19.8645 5.09058 20.0191 5.90673 20.0353C6.95562 20.0821 7.29043 20.0943 9.96089 20.0943C12.6313 20.0943 12.9661 20.083 14.015 20.0353C14.8312 20.0191 15.6387 19.8645 16.4031 19.5783C17.0562 19.3251 17.6492 18.9385 18.1442 18.4431C18.6393 17.9477 19.0255 17.3545 19.2782 16.7013C19.5645 15.9368 19.719 15.1294 19.7352 14.3132C19.7821 13.2653 19.7933 12.929 19.7933 10.26C19.7933 7.59094 19.7821 7.25473 19.7343 6.20584C19.7181 5.38969 19.5635 4.58221 19.2773 3.81774C19.0303 3.16161 18.6431 2.5673 18.1427 2.0763C17.6517 1.57589 17.0574 1.18868 16.4013 0.941717C15.6368 0.655464 14.8293 0.500934 14.0132 0.4847C12.9652 0.437875 12.629 0.426636 9.95995 0.426636Z" fill="#0F172A"/>
<path d="M9.95958 5.20898C8.96085 5.20898 7.98455 5.50514 7.15414 6.06001C6.32372 6.61487 5.67649 7.40352 5.2943 8.32623C4.9121 9.24893 4.8121 10.2642 5.00694 11.2438C5.20179 12.2233 5.68272 13.1231 6.38893 13.8293C7.09514 14.5355 7.9949 15.0164 8.97444 15.2113C9.95398 15.4061 10.9693 15.3061 11.892 14.9239C12.8147 14.5417 13.6034 13.8945 14.1582 13.0641C14.7131 12.2337 15.0092 11.2574 15.0092 10.2586C15.0092 8.91939 14.4772 7.63499 13.5302 6.688C12.5832 5.741 11.2988 5.20898 9.95958 5.20898ZM9.95958 13.5364C9.31129 13.5364 8.67757 13.3442 8.13854 12.984C7.59951 12.6239 7.17939 12.1119 6.9313 11.513C6.68321 10.9141 6.6183 10.255 6.74477 9.61918C6.87125 8.98335 7.18343 8.39931 7.64183 7.9409C8.10024 7.4825 8.68429 7.17032 9.32011 7.04384C9.95594 6.91737 10.615 6.98228 11.2139 7.23037C11.8129 7.47846 12.3248 7.89858 12.685 8.43761C13.0451 8.97664 13.2374 9.61036 13.2374 10.2586C13.2374 11.128 12.892 11.9617 12.2773 12.5764C11.6626 13.1911 10.8289 13.5364 9.95958 13.5364Z" fill="#0F172A"/>
<path d="M15.2084 6.19057C15.8601 6.19057 16.3884 5.66227 16.3884 5.01057C16.3884 4.35887 15.8601 3.83057 15.2084 3.83057C14.5567 3.83057 14.0284 4.35887 14.0284 5.01057C14.0284 5.66227 14.5567 6.19057 15.2084 6.19057Z" fill="#0F172A"/>
</svg>
