<svg width="20" height="19" viewBox="0 0 20 19" fill="none" xmlns="http://www.w3.org/2000/svg">
<path fill-rule="evenodd" clip-rule="evenodd" d="M10.0097 0.426636C4.7971 0.426636 0.603516 4.62022 0.603516 9.8328C0.603516 13.9872 3.30779 17.5145 7.03106 18.7687C7.50137 18.847 7.65814 18.5727 7.65814 18.2983C7.65814 18.0632 7.65814 17.4753 7.65814 16.6915C5.03225 17.2793 4.48356 15.4373 4.48356 15.4373C4.05244 14.3399 3.42536 14.0656 3.42536 14.0656C2.56313 13.4777 3.50375 13.4777 3.50375 13.4777C4.44437 13.5561 4.95387 14.4575 4.95387 14.4575C5.7769 15.9076 7.14864 15.4765 7.69733 15.2413C7.77571 14.6143 8.01087 14.2223 8.28521 13.9872C6.20802 13.752 4.01325 12.929 4.01325 9.32329C4.01325 8.30429 4.36598 7.44206 4.99306 6.81499C4.91467 6.57983 4.56194 5.63922 5.07144 4.30668C5.07144 4.30668 5.85529 4.07152 7.65814 5.28649C8.40279 5.09052 9.22583 4.97295 10.0097 4.97295C10.7935 4.97295 11.6166 5.09052 12.3612 5.28649C14.1641 4.07152 14.9479 4.30668 14.9479 4.30668C15.4574 5.60002 15.1439 6.54064 15.0263 6.81499C15.6142 7.48126 16.0061 8.3043 16.0061 9.3233C16.0061 12.929 13.8113 13.7128 11.6949 13.948C12.0477 14.2223 12.322 14.8102 12.322 15.6725C12.322 16.9266 12.322 17.9456 12.322 18.2591C12.322 18.4943 12.4788 18.8078 12.9883 18.7295C16.7116 17.5145 19.4158 13.9872 19.4158 9.8328C19.4158 4.62022 15.2223 0.426637 10.0097 0.426636Z" fill="#0F172A"/>
</svg>
