<svg width="28" height="10" viewBox="0 0 28 10" fill="none" xmlns="http://www.w3.org/2000/svg">
<path d="M7.35629 2.08835L6.71961 2.31213L6.71611 4.02286C6.7126 5.75805 6.71844 6.06009 6.75583 6.28998C6.85162 6.87938 7.10396 7.38319 7.51984 7.81607C7.73363 8.03862 7.93223 8.18658 8.21143 8.3321C8.53854 8.50207 8.97896 8.61335 9.32242 8.61335L9.389 8.61335L9.389 7.93101L9.389 7.24745L9.27569 7.24011C9.11914 7.23033 8.95326 7.18264 8.79788 7.10316C8.37499 6.88794 8.09227 6.47463 8.03503 5.99039C8.02802 5.92435 8.02218 5.65166 8.02218 5.31416L8.02218 4.74922L8.70559 4.74922L9.389 4.74922L9.389 4.11335L9.389 3.47748L8.70559 3.47748L8.02218 3.47748L8.02218 2.67041C8.02218 2.0321 8.01868 1.86335 8.00816 1.86457C7.99998 1.86457 7.70676 1.96607 7.35629 2.08835Z" fill="black"/>
<path d="M23.0922 2.08826L22.4555 2.31204L22.4555 4.22454C22.4555 6.00497 22.4567 6.1456 22.4766 6.25932C22.5794 6.86584 22.8048 7.33418 23.195 7.75973C23.4322 8.01652 23.6471 8.18282 23.938 8.33201C24.2698 8.50198 24.5957 8.5888 24.9789 8.60959L25.1249 8.61693L25.1249 7.93215L25.1249 7.24736L25.0058 7.24003C24.9392 7.23513 24.8457 7.22168 24.7967 7.20823C24.2161 7.05171 23.8142 6.56136 23.7581 5.93772C23.7523 5.86557 23.7464 5.56842 23.7464 5.27739L23.7464 4.74913L24.4357 4.74913L25.1249 4.74913L25.1249 4.11326L25.1249 3.47739L24.4357 3.47739L23.7464 3.47739L23.7464 2.67032C23.7464 2.22644 23.7429 1.86326 23.7383 1.86448C23.7324 1.86448 23.4427 1.96598 23.0922 2.08826Z" fill="black"/>
<path d="M4.13086 3.36847C3.73132 3.40638 3.34581 3.61915 3.08179 3.94931C2.40773 4.79429 2.67174 6.05869 3.62151 6.52825C3.85516 6.64442 4.04441 6.68111 4.40656 6.68111C4.68226 6.68111 4.73016 6.68844 4.7874 6.73858C4.92408 6.85964 4.87385 7.08219 4.69861 7.13233C4.66707 7.14089 4.3353 7.14578 3.63903 7.14578L2.62502 7.14578L2.62502 7.85502L2.62502 8.56548L3.7617 8.56059C4.77922 8.55692 4.90539 8.55447 4.97899 8.53613C5.34698 8.4432 5.64838 8.25244 5.86567 7.97608C6.17875 7.57621 6.29791 7.07486 6.19978 6.57227C6.0888 6.00244 5.68693 5.52798 5.15656 5.34211C4.9673 5.27608 4.86216 5.2614 4.52922 5.25407C4.22198 5.24673 4.19628 5.24306 4.13903 5.19048C4.10282 5.15746 4.07361 5.08287 4.07361 5.02418C4.07361 4.92268 4.14254 4.82486 4.23483 4.79795C4.26287 4.79062 4.59815 4.78573 5.18693 4.78573L6.09464 4.78573L6.09464 4.07037L6.09464 3.35502L5.16941 3.35624C4.66006 3.35746 4.19277 3.36358 4.13086 3.36847Z" fill="black"/>
<path d="M12.2277 3.36851C11.8048 3.41865 11.3562 3.59107 11.0034 3.83686C10.5817 4.13156 10.2593 4.51063 10.035 4.97531C9.93452 5.18319 9.87961 5.33604 9.82704 5.54881C9.74527 5.88387 9.7476 5.83984 9.74293 7.24609L9.73826 8.51539L10.3936 8.51539L11.0478 8.51539L11.0478 7.33169C11.0478 6.32653 11.0502 6.1321 11.0654 6.03305C11.1203 5.6821 11.306 5.33604 11.5607 5.10737C11.8259 4.87014 12.1062 4.74908 12.4649 4.71851L12.5548 4.70995L12.5548 4.03251L12.5548 3.35506L12.4357 3.35628C12.3691 3.35751 12.2756 3.3624 12.2277 3.36851Z" fill="black"/>
<path d="M14.6228 3.43944C14.124 3.48346 13.6695 3.67666 13.2688 4.01294C12.5842 4.58767 12.2454 5.55737 12.409 6.47694C12.4662 6.79732 12.5609 7.06267 12.7162 7.33536C12.9662 7.77191 13.2933 8.0874 13.7478 8.32707C14.048 8.48482 14.4779 8.58876 14.8342 8.58876C15.1391 8.58876 15.5188 8.50683 15.7933 8.37965C15.8529 8.35275 15.909 8.32707 15.9172 8.3234C15.9277 8.31851 15.9312 8.34175 15.9312 8.41634L15.9312 8.51539L16.5796 8.51539L17.2279 8.51539L17.2279 5.97191L17.2279 3.42843L16.5796 3.42843L15.9312 3.42843L15.9312 3.56294C15.9312 3.63631 15.9289 3.69745 15.9265 3.69745C15.9242 3.69745 15.8856 3.68033 15.8412 3.65954C15.4756 3.48835 15.0176 3.4052 14.6228 3.43944ZM15.0211 4.81634C15.2548 4.85914 15.4604 4.96919 15.638 5.14528C15.8074 5.31525 15.9335 5.5696 15.9733 5.82517C16.0422 6.26416 15.8599 6.72517 15.5165 6.98074C15.4277 7.048 15.2583 7.13604 15.1602 7.16783C14.9721 7.22775 14.7326 7.23387 14.5468 7.18373C14.4335 7.15316 14.2583 7.06634 14.1625 6.99419C14.0036 6.87435 13.8436 6.6677 13.77 6.48794C13.6964 6.30696 13.6824 6.2287 13.6835 6.00859C13.6835 5.77748 13.7011 5.69066 13.7805 5.51335C13.8424 5.37395 13.8997 5.2859 14.0013 5.17463C14.2665 4.88359 14.652 4.74786 15.0211 4.81634Z" fill="black"/>
<path d="M19.8329 3.44184C19.3329 3.48708 18.8574 3.69619 18.4579 4.04347C18.2207 4.25013 17.9614 4.6023 17.8352 4.88966C17.6717 5.25896 17.6016 5.5989 17.6016 6.01833C17.6016 6.697 17.8259 7.29252 18.2686 7.78654C18.9602 8.55814 20.0759 8.80026 21.0175 8.38206C21.313 8.25121 21.5689 8.06901 21.8013 7.82567C21.9275 7.69361 22.0876 7.49184 22.0876 7.46371C22.0876 7.45271 21.0326 6.69333 21.0163 6.69333C21.0116 6.69333 20.9953 6.71168 20.9801 6.73491C20.9298 6.81195 20.7885 6.95013 20.6904 7.01861C20.3609 7.24727 19.9334 7.28274 19.5805 7.10909C19.3504 6.99782 19.167 6.81806 19.0408 6.58206C18.9392 6.39374 18.8855 6.10638 18.9088 5.88749C18.9672 5.36779 19.2955 4.97159 19.7838 4.83219C19.917 4.79428 20.1833 4.79428 20.3282 4.83219C20.4474 4.86276 20.6144 4.94225 20.7161 5.01562C20.7932 5.07064 20.9065 5.1807 20.9684 5.2614L21.0093 5.31521L21.5326 4.93124C21.8212 4.71969 22.0619 4.54361 22.0689 4.53871C22.0876 4.52526 21.9544 4.35284 21.8013 4.19265C21.4147 3.78668 20.9404 3.536 20.4123 3.45896C20.2511 3.43572 19.9871 3.42716 19.8329 3.44184Z" fill="black"/>
</svg>
