<svg width="652" height="607" viewBox="0 0 652 607" fill="none" xmlns="http://www.w3.org/2000/svg">
<g filter="url(#filter0_d_1_753)">
<rect x="72.7" y="67.9668" width="506.71" height="462" rx="14.9032" fill="white"/>
<path d="M127.841 441.292L518.306 441.292" stroke="#E4E4E4" stroke-opacity="0.2" stroke-width="1.49032" stroke-linecap="square"/>
<path d="M127.841 386.149L518.306 386.149" stroke="#E4E4E4" stroke-opacity="0.2" stroke-width="1.49032" stroke-linecap="square"/>
<path d="M127.841 331.008L518.306 331.008" stroke="#E4E4E4" stroke-opacity="0.2" stroke-width="1.49032" stroke-linecap="square"/>
<path d="M127.841 275.865L518.306 275.865" stroke="#E4E4E4" stroke-opacity="0.2" stroke-width="1.49032" stroke-linecap="square"/>
<path d="M127.841 220.724L518.306 220.724" stroke="#E4E4E4" stroke-opacity="0.2" stroke-width="1.49032" stroke-linecap="square"/>
<path d="M127.841 165.581L518.306 165.581" stroke="#E4E4E4" stroke-opacity="0.2" stroke-width="1.49032" stroke-linecap="square"/>
<path d="M131.568 413.983L183.824 397.537L237.573 322.78L290.575 351.187L344.324 274.935L398.82 245.032L448.836 297.917L490.641 212.139L514.581 198.736" stroke="#27B3AA" stroke-width="2.98065" stroke-linecap="round" stroke-linejoin="round"/>
<g filter="url(#filter1_dd_1_753)">
<rect x="387.904" y="236.635" width="20.8645" height="20.8645" rx="10.4323" fill="#27B3AA"/>
<rect x="389.394" y="238.126" width="17.8839" height="17.8839" rx="8.94193" stroke="white" stroke-width="2.98065"/>
</g>
<g filter="url(#filter2_dd_1_753)">
<rect x="480.301" y="202.357" width="20.8645" height="20.8645" rx="10.4323" fill="#27B3AA"/>
<rect x="481.792" y="203.848" width="17.8839" height="17.8839" rx="8.94193" stroke="white" stroke-width="2.98065"/>
</g>
<g filter="url(#filter3_dd_1_753)">
<rect x="437.083" y="287.306" width="20.8645" height="20.8645" rx="10.4323" fill="#27B3AA"/>
<rect x="438.573" y="288.796" width="17.8839" height="17.8839" rx="8.94193" stroke="white" stroke-width="2.98065"/>
</g>
<g filter="url(#filter4_dd_1_753)">
<rect x="337.234" y="261.971" width="20.8645" height="20.8645" rx="10.4323" fill="#27B3AA"/>
<rect x="338.725" y="263.461" width="17.8839" height="17.8839" rx="8.94193" stroke="white" stroke-width="2.98065"/>
</g>
<g filter="url(#filter5_dd_1_753)">
<rect x="279.112" y="339.468" width="20.8645" height="20.8645" rx="10.4323" fill="#27B3AA"/>
<rect x="280.602" y="340.958" width="17.8839" height="17.8839" rx="8.94193" stroke="white" stroke-width="2.98065"/>
</g>
<g filter="url(#filter6_dd_1_753)">
<rect x="228.438" y="312.642" width="20.8645" height="20.8645" rx="10.4323" fill="#27B3AA"/>
<rect x="229.928" y="314.132" width="17.8839" height="17.8839" rx="8.94193" stroke="white" stroke-width="2.98065"/>
</g>
<g filter="url(#filter7_dd_1_753)">
<rect x="173.298" y="385.667" width="20.8645" height="20.8645" rx="10.4323" fill="#27B3AA"/>
<rect x="174.789" y="387.157" width="17.8839" height="17.8839" rx="8.94193" stroke="white" stroke-width="2.98065"/>
</g>
<path d="M410.793 483.372L410.793 482.324L414.728 478.016C415.19 477.512 415.57 477.073 415.869 476.701C416.168 476.324 416.389 475.971 416.533 475.641C416.68 475.307 416.754 474.958 416.754 474.593C416.754 474.174 416.653 473.811 416.451 473.505C416.254 473.198 415.982 472.961 415.636 472.795C415.291 472.628 414.903 472.544 414.472 472.544C414.014 472.544 413.614 472.639 413.273 472.829C412.935 473.016 412.673 473.278 412.487 473.615C412.305 473.953 412.213 474.349 412.213 474.803L410.839 474.803C410.839 474.104 411.001 473.491 411.323 472.963C411.645 472.436 412.083 472.024 412.638 471.729C413.197 471.434 413.824 471.287 414.519 471.287C415.217 471.287 415.836 471.434 416.376 471.729C416.915 472.024 417.338 472.422 417.645 472.923C417.951 473.423 418.105 473.98 418.105 474.593C418.105 475.032 418.025 475.461 417.866 475.88C417.711 476.295 417.439 476.759 417.051 477.271C416.667 477.78 416.133 478.401 415.45 479.134L412.772 481.998L412.772 482.092L418.314 482.092L418.314 483.372L410.793 483.372ZM424.607 483.535C423.73 483.535 422.983 483.297 422.366 482.819C421.749 482.338 421.278 481.641 420.952 480.729C420.626 479.813 420.463 478.707 420.463 477.411C420.463 476.123 420.626 475.022 420.952 474.11C421.281 473.194 421.755 472.496 422.372 472.014C422.993 471.529 423.738 471.287 424.607 471.287C425.477 471.287 426.22 471.529 426.837 472.014C427.458 472.496 427.932 473.194 428.258 474.11C428.588 475.022 428.752 476.123 428.752 477.411C428.752 478.707 428.589 479.813 428.263 480.729C427.937 481.641 427.466 482.338 426.849 482.819C426.232 483.297 425.485 483.535 424.607 483.535ZM424.607 482.255C425.477 482.255 426.152 481.835 426.633 480.997C427.115 480.159 427.355 478.963 427.355 477.411C427.355 476.379 427.245 475.5 427.023 474.774C426.806 474.048 426.492 473.495 426.08 473.115C425.673 472.734 425.182 472.544 424.607 472.544C423.746 472.544 423.073 472.969 422.587 473.819C422.102 474.665 421.86 475.862 421.86 477.411C421.86 478.443 421.968 479.321 422.186 480.042C422.403 480.764 422.715 481.313 423.123 481.69C423.534 482.066 424.029 482.255 424.607 482.255ZM430.965 483.372L430.965 482.324L434.9 478.016C435.362 477.512 435.742 477.073 436.041 476.701C436.34 476.324 436.561 475.971 436.705 475.641C436.852 475.307 436.926 474.958 436.926 474.593C436.926 474.174 436.825 473.811 436.623 473.505C436.425 473.198 436.154 472.961 435.808 472.795C435.463 472.628 435.075 472.544 434.644 472.544C434.186 472.544 433.786 472.639 433.445 472.829C433.107 473.016 432.845 473.278 432.659 473.615C432.476 473.953 432.385 474.349 432.385 474.803L431.011 474.803C431.011 474.104 431.172 473.491 431.494 472.963C431.817 472.436 432.255 472.024 432.81 471.729C433.369 471.434 433.996 471.287 434.69 471.287C435.389 471.287 436.008 471.434 436.548 471.729C437.087 472.024 437.51 472.422 437.817 472.923C438.123 473.423 438.277 473.98 438.277 474.593C438.277 475.032 438.197 475.461 438.038 475.88C437.883 476.295 437.611 476.759 437.223 477.271C436.839 477.78 436.305 478.401 435.622 479.134L432.944 481.998L432.944 482.092L438.486 482.092L438.486 483.372L430.965 483.372ZM444.779 483.535C443.902 483.535 443.155 483.297 442.538 482.819C441.921 482.338 441.449 481.641 441.123 480.729C440.797 479.813 440.634 478.707 440.634 477.411C440.634 476.123 440.797 475.022 441.123 474.11C441.453 473.194 441.927 472.496 442.544 472.014C443.165 471.529 443.91 471.287 444.779 471.287C445.649 471.287 446.392 471.529 447.009 472.014C447.63 472.496 448.103 473.194 448.429 474.11C448.759 475.022 448.924 476.123 448.924 477.411C448.924 478.707 448.761 479.813 448.435 480.729C448.109 481.641 447.638 482.338 447.021 482.819C446.403 483.297 445.656 483.535 444.779 483.535ZM444.779 482.255C445.649 482.255 446.324 481.835 446.805 480.997C447.286 480.159 447.527 478.963 447.527 477.411C447.527 476.379 447.416 475.5 447.195 474.774C446.978 474.048 446.663 473.495 446.252 473.115C445.845 472.734 445.354 472.544 444.779 472.544C443.918 472.544 443.244 472.969 442.759 473.819C442.274 474.665 442.031 475.862 442.031 477.411C442.031 478.443 442.14 479.321 442.357 480.042C442.575 480.764 442.887 481.313 443.295 481.69C443.706 482.066 444.201 482.255 444.779 482.255Z" fill="#999999"/>
<path d="M337.407 483.372L337.407 482.324L341.342 478.016C341.804 477.512 342.184 477.073 342.483 476.701C342.782 476.324 343.003 475.971 343.147 475.641C343.294 475.307 343.368 474.958 343.368 474.593C343.368 474.174 343.267 473.811 343.065 473.505C342.867 473.198 342.596 472.961 342.25 472.795C341.905 472.628 341.517 472.544 341.086 472.544C340.628 472.544 340.228 472.639 339.887 472.829C339.549 473.016 339.287 473.278 339.101 473.615C338.918 473.953 338.827 474.349 338.827 474.803L337.453 474.803C337.453 474.104 337.614 473.491 337.936 472.963C338.258 472.436 338.697 472.024 339.252 471.729C339.811 471.434 340.438 471.287 341.132 471.287C341.831 471.287 342.45 471.434 342.989 471.729C343.529 472.024 343.952 472.422 344.259 472.923C344.565 473.423 344.718 473.98 344.718 474.593C344.718 475.032 344.639 475.461 344.48 475.88C344.325 476.295 344.053 476.759 343.665 477.271C343.281 477.78 342.747 478.401 342.064 479.134L339.386 481.998L339.386 482.092L344.928 482.092L344.928 483.372L337.407 483.372ZM351.221 483.535C350.344 483.535 349.597 483.297 348.98 482.819C348.363 482.338 347.891 481.641 347.565 480.729C347.239 479.813 347.076 478.707 347.076 477.411C347.076 476.123 347.239 475.022 347.565 474.11C347.895 473.194 348.369 472.496 348.986 472.014C349.607 471.529 350.352 471.287 351.221 471.287C352.09 471.287 352.834 471.529 353.451 472.014C354.072 472.496 354.545 473.194 354.871 474.11C355.201 475.022 355.366 476.123 355.366 477.411C355.366 478.707 355.203 479.813 354.877 480.729C354.551 481.641 354.08 482.338 353.462 482.819C352.845 483.297 352.098 483.535 351.221 483.535ZM351.221 482.255C352.09 482.255 352.766 481.835 353.247 480.997C353.728 480.159 353.969 478.963 353.969 477.411C353.969 476.379 353.858 475.5 353.637 474.774C353.42 474.048 353.105 473.495 352.694 473.115C352.286 472.734 351.796 472.544 351.221 472.544C350.36 472.544 349.686 472.969 349.201 473.819C348.716 474.665 348.473 475.862 348.473 477.411C348.473 478.443 348.582 479.321 348.799 480.042C349.017 480.764 349.329 481.313 349.737 481.69C350.148 482.066 350.643 482.255 351.221 482.255ZM361.77 471.45L361.77 483.372L360.326 483.372L360.326 472.963L360.256 472.963L357.345 474.896L357.345 473.429L360.326 471.45L361.77 471.45ZM368.994 471.287C369.483 471.291 369.972 471.384 370.461 471.566C370.95 471.749 371.397 472.051 371.8 472.474C372.204 472.893 372.528 473.466 372.773 474.192C373.017 474.917 373.139 475.828 373.139 476.922C373.139 477.982 373.038 478.923 372.837 479.745C372.639 480.564 372.352 481.255 371.975 481.818C371.602 482.381 371.148 482.808 370.613 483.099C370.081 483.39 369.48 483.535 368.808 483.535C368.141 483.535 367.545 483.403 367.021 483.139C366.501 482.872 366.074 482.501 365.74 482.028C365.41 481.55 365.199 480.997 365.106 480.368L366.526 480.368C366.654 480.916 366.908 481.368 367.289 481.725C367.673 482.078 368.179 482.255 368.808 482.255C369.728 482.255 370.454 481.853 370.985 481.05C371.521 480.246 371.789 479.111 371.789 477.644L371.696 477.644C371.478 477.97 371.22 478.251 370.921 478.488C370.622 478.725 370.291 478.907 369.926 479.035C369.561 479.163 369.173 479.227 368.762 479.227C368.078 479.227 367.452 479.059 366.881 478.721C366.315 478.379 365.86 477.912 365.519 477.318C365.181 476.72 365.012 476.037 365.012 475.269C365.012 474.539 365.175 473.872 365.501 473.266C365.831 472.657 366.293 472.172 366.887 471.811C367.485 471.45 368.187 471.275 368.994 471.287ZM368.994 472.567C368.505 472.567 368.065 472.69 367.673 472.934C367.285 473.175 366.976 473.501 366.747 473.912C366.522 474.32 366.41 474.772 366.41 475.269C366.41 475.765 366.518 476.218 366.736 476.625C366.957 477.029 367.258 477.351 367.638 477.591C368.022 477.828 368.459 477.947 368.948 477.947C369.317 477.947 369.66 477.875 369.978 477.731C370.296 477.584 370.574 477.384 370.811 477.132C371.051 476.875 371.24 476.586 371.375 476.264C371.511 475.938 371.579 475.599 371.579 475.245C371.579 474.78 371.467 474.343 371.242 473.936C371.02 473.528 370.714 473.198 370.322 472.946C369.934 472.694 369.491 472.567 368.994 472.567Z" fill="#999999"/>
<path d="M266.408 483.372L266.408 482.324L270.343 478.016C270.805 477.512 271.186 477.073 271.484 476.701C271.783 476.324 272.004 475.971 272.148 475.641C272.296 475.307 272.369 474.958 272.369 474.593C272.369 474.174 272.268 473.811 272.067 473.505C271.869 473.198 271.597 472.961 271.252 472.795C270.906 472.628 270.518 472.544 270.087 472.544C269.629 472.544 269.229 472.639 268.888 472.829C268.55 473.016 268.288 473.278 268.102 473.615C267.92 473.953 267.828 474.349 267.828 474.803L266.455 474.803C266.455 474.104 266.616 473.491 266.938 472.963C267.26 472.436 267.698 472.024 268.253 471.729C268.812 471.434 269.439 471.287 270.134 471.287C270.832 471.287 271.451 471.434 271.991 471.729C272.53 472.024 272.953 472.422 273.26 472.923C273.567 473.423 273.72 473.98 273.72 474.593C273.72 475.032 273.64 475.461 273.481 475.88C273.326 476.295 273.054 476.759 272.666 477.271C272.282 477.78 271.748 478.401 271.065 479.134L268.387 481.998L268.387 482.092L273.929 482.092L273.929 483.372L266.408 483.372ZM280.223 483.535C279.345 483.535 278.598 483.297 277.981 482.819C277.364 482.338 276.893 481.641 276.567 480.729C276.241 479.813 276.078 478.707 276.078 477.411C276.078 476.123 276.241 475.022 276.567 474.11C276.896 473.194 277.37 472.496 277.987 472.014C278.608 471.529 279.353 471.287 280.223 471.287C281.092 471.287 281.835 471.529 282.452 472.014C283.073 472.496 283.547 473.194 283.873 474.11C284.203 475.022 284.368 476.123 284.368 477.411C284.368 478.707 284.205 479.813 283.879 480.729C283.552 481.641 283.081 482.338 282.464 482.819C281.847 483.297 281.1 483.535 280.223 483.535ZM280.223 482.255C281.092 482.255 281.767 481.835 282.248 480.997C282.73 480.159 282.97 478.963 282.97 477.411C282.97 476.379 282.86 475.5 282.639 474.774C282.421 474.048 282.107 473.495 281.695 473.115C281.288 472.734 280.797 472.544 280.223 472.544C279.361 472.544 278.688 472.969 278.202 473.819C277.717 474.665 277.475 475.862 277.475 477.411C277.475 478.443 277.583 479.321 277.801 480.042C278.018 480.764 278.331 481.313 278.738 481.69C279.149 482.066 279.644 482.255 280.223 482.255ZM290.771 471.45L290.771 483.372L289.327 483.372L289.327 472.963L289.258 472.963L286.347 474.896L286.347 473.429L289.327 471.45L290.771 471.45ZM298.019 483.535C297.22 483.535 296.513 483.394 295.9 483.11C295.291 482.823 294.815 482.429 294.474 481.929C294.132 481.424 293.963 480.85 293.967 480.205C293.963 479.701 294.062 479.235 294.264 478.808C294.466 478.377 294.742 478.018 295.091 477.731C295.444 477.44 295.838 477.256 296.273 477.178L296.273 477.108C295.702 476.961 295.248 476.641 294.91 476.148C294.573 475.651 294.406 475.086 294.41 474.454C294.406 473.848 294.559 473.307 294.87 472.829C295.18 472.352 295.607 471.976 296.15 471.7C296.698 471.425 297.321 471.287 298.019 471.287C298.71 471.287 299.327 471.425 299.87 471.7C300.414 471.976 300.841 472.352 301.151 472.829C301.465 473.307 301.625 473.848 301.628 474.454C301.625 475.086 301.452 475.651 301.11 476.148C300.773 476.641 300.324 476.961 299.766 477.108L299.766 477.178C300.196 477.256 300.584 477.44 300.93 477.731C301.275 478.018 301.551 478.377 301.757 478.808C301.962 479.235 302.067 479.701 302.071 480.205C302.067 480.85 301.892 481.424 301.547 481.929C301.205 482.429 300.73 482.823 300.121 483.11C299.515 483.394 298.815 483.535 298.019 483.535ZM298.019 482.255C298.559 482.255 299.024 482.167 299.416 481.993C299.808 481.818 300.111 481.572 300.324 481.253C300.538 480.935 300.647 480.562 300.65 480.136C300.647 479.685 300.53 479.288 300.301 478.942C300.072 478.597 299.76 478.325 299.364 478.127C298.972 477.929 298.524 477.83 298.019 477.83C297.511 477.83 297.057 477.929 296.657 478.127C296.261 478.325 295.949 478.597 295.72 478.942C295.494 479.288 295.384 479.685 295.388 480.136C295.384 480.562 295.487 480.935 295.696 481.253C295.91 481.572 296.214 481.818 296.61 481.993C297.006 482.167 297.476 482.255 298.019 482.255ZM298.019 476.596C298.446 476.596 298.824 476.511 299.154 476.34C299.488 476.169 299.75 475.93 299.94 475.624C300.13 475.317 300.227 474.958 300.231 474.547C300.227 474.143 300.132 473.792 299.946 473.493C299.76 473.19 299.502 472.958 299.172 472.795C298.842 472.628 298.458 472.544 298.019 472.544C297.573 472.544 297.183 472.628 296.849 472.795C296.515 472.958 296.257 473.19 296.075 473.493C295.892 473.792 295.803 474.143 295.807 474.547C295.803 474.958 295.894 475.317 296.081 475.624C296.271 475.93 296.533 476.169 296.866 476.34C297.2 476.511 297.584 476.596 298.019 476.596Z" fill="#999999"/>
<path d="M194.223 483.372L194.223 482.324L198.158 478.016C198.62 477.512 199.001 477.073 199.299 476.701C199.598 476.324 199.82 475.971 199.963 475.641C200.111 475.307 200.184 474.958 200.184 474.593C200.184 474.174 200.083 473.811 199.882 473.505C199.684 473.198 199.412 472.961 199.067 472.795C198.721 472.628 198.333 472.544 197.902 472.544C197.444 472.544 197.045 472.639 196.703 472.829C196.365 473.016 196.103 473.278 195.917 473.615C195.735 473.953 195.644 474.349 195.644 474.803L194.27 474.803C194.27 474.104 194.431 473.491 194.753 472.963C195.075 472.436 195.514 472.024 196.069 471.729C196.627 471.434 197.254 471.287 197.949 471.287C198.647 471.287 199.266 471.434 199.806 471.729C200.345 472.024 200.768 472.422 201.075 472.923C201.382 473.423 201.535 473.98 201.535 474.593C201.535 475.032 201.455 475.461 201.296 475.88C201.141 476.295 200.869 476.759 200.481 477.271C200.097 477.78 199.563 478.401 198.88 479.134L196.202 481.998L196.202 482.092L201.745 482.092L201.745 483.372L194.223 483.372ZM208.038 483.535C207.161 483.535 206.413 483.297 205.796 482.819C205.179 482.338 204.708 481.641 204.382 480.729C204.056 479.813 203.893 478.707 203.893 477.411C203.893 476.123 204.056 475.022 204.382 474.11C204.712 473.194 205.185 472.496 205.802 472.014C206.423 471.529 207.168 471.287 208.038 471.287C208.907 471.287 209.65 471.529 210.267 472.014C210.888 472.496 211.362 473.194 211.688 474.11C212.018 475.022 212.183 476.123 212.183 477.411C212.183 478.707 212.02 479.813 211.694 480.729C211.368 481.641 210.896 482.338 210.279 482.819C209.662 483.297 208.915 483.535 208.038 483.535ZM208.038 482.255C208.907 482.255 209.582 481.835 210.064 480.997C210.545 480.159 210.785 478.963 210.785 477.411C210.785 476.379 210.675 475.5 210.454 474.774C210.236 474.048 209.922 473.495 209.511 473.115C209.103 472.734 208.612 472.544 208.038 472.544C207.176 472.544 206.503 472.969 206.018 473.819C205.532 474.665 205.29 475.862 205.29 477.411C205.29 478.443 205.399 479.321 205.616 480.042C205.833 480.764 206.146 481.313 206.553 481.69C206.965 482.066 207.459 482.255 208.038 482.255ZM218.586 471.45L218.586 483.372L217.143 483.372L217.143 472.963L217.073 472.963L214.162 474.896L214.162 473.429L217.143 471.45L218.586 471.45ZM222.388 483.372L227.72 472.824L227.72 472.73L221.573 472.73L221.573 471.45L229.211 471.45L229.211 472.8L223.901 483.372L222.388 483.372Z" fill="#999999"/>
<path d="M482.998 483.372L482.998 482.324L486.934 478.016C487.395 477.512 487.776 477.073 488.075 476.701C488.373 476.324 488.595 475.971 488.738 475.641C488.886 475.307 488.959 474.958 488.959 474.593C488.959 474.174 488.859 473.811 488.657 473.505C488.459 473.198 488.187 472.961 487.842 472.795C487.496 472.628 487.108 472.544 486.677 472.544C486.219 472.544 485.82 472.639 485.478 472.829C485.14 473.016 484.878 473.278 484.692 473.615C484.51 473.953 484.419 474.349 484.419 474.803L483.045 474.803C483.045 474.104 483.206 473.491 483.528 472.963C483.85 472.436 484.289 472.024 484.844 471.729C485.402 471.434 486.029 471.287 486.724 471.287C487.423 471.287 488.042 471.434 488.581 471.729C489.12 472.024 489.544 472.422 489.85 472.923C490.157 473.423 490.31 473.98 490.31 474.593C490.31 475.032 490.23 475.461 490.071 475.88C489.916 476.295 489.644 476.759 489.256 477.271C488.872 477.78 488.338 478.401 487.655 479.134L484.977 481.998L484.977 482.092L490.52 482.092L490.52 483.372L482.998 483.372ZM496.813 483.535C495.936 483.535 495.189 483.297 494.571 482.819C493.954 482.338 493.483 481.641 493.157 480.729C492.831 479.813 492.668 478.707 492.668 477.411C492.668 476.123 492.831 475.022 493.157 474.11C493.487 473.194 493.96 472.496 494.577 472.014C495.198 471.529 495.943 471.287 496.813 471.287C497.682 471.287 498.425 471.529 499.042 472.014C499.663 472.496 500.137 473.194 500.463 474.11C500.793 475.022 500.958 476.123 500.958 477.411C500.958 478.707 500.795 479.813 500.469 480.729C500.143 481.641 499.671 482.338 499.054 482.819C498.437 483.297 497.69 483.535 496.813 483.535ZM496.813 482.255C497.682 482.255 498.357 481.835 498.839 480.997C499.32 480.159 499.561 478.963 499.561 477.411C499.561 476.379 499.45 475.5 499.229 474.774C499.011 474.048 498.697 473.495 498.286 473.115C497.878 472.734 497.387 472.544 496.813 472.544C495.951 472.544 495.278 472.969 494.793 473.819C494.308 474.665 494.065 475.862 494.065 477.411C494.065 478.443 494.174 479.321 494.391 480.042C494.608 480.764 494.921 481.313 495.328 481.69C495.74 482.066 496.234 482.255 496.813 482.255ZM503.17 483.372L503.17 482.324L507.105 478.016C507.567 477.512 507.947 477.073 508.246 476.701C508.545 476.324 508.766 475.971 508.91 475.641C509.057 475.307 509.131 474.958 509.131 474.593C509.131 474.174 509.03 473.811 508.828 473.505C508.631 473.198 508.359 472.961 508.013 472.795C507.668 472.628 507.28 472.544 506.849 472.544C506.391 472.544 505.991 472.639 505.65 472.829C505.312 473.016 505.05 473.278 504.864 473.615C504.682 473.953 504.59 474.349 504.59 474.803L503.216 474.803C503.216 474.104 503.378 473.491 503.7 472.963C504.022 472.436 504.46 472.024 505.015 471.729C505.574 471.434 506.201 471.287 506.896 471.287C507.594 471.287 508.213 471.434 508.753 471.729C509.292 472.024 509.715 472.422 510.022 472.923C510.328 473.423 510.482 473.98 510.482 474.593C510.482 475.032 510.402 475.461 510.243 475.88C510.088 476.295 509.816 476.759 509.428 477.271C509.044 477.78 508.51 478.401 507.827 479.134L505.149 481.998L505.149 482.092L510.691 482.092L510.691 483.372L503.17 483.372ZM513.096 483.372L513.096 482.324L517.031 478.016C517.493 477.512 517.873 477.073 518.172 476.701C518.471 476.324 518.692 475.971 518.836 475.641C518.983 475.307 519.057 474.958 519.057 474.593C519.057 474.174 518.956 473.811 518.754 473.505C518.556 473.198 518.285 472.961 517.939 472.795C517.594 472.628 517.206 472.544 516.775 472.544C516.317 472.544 515.917 472.639 515.576 472.829C515.238 473.016 514.976 473.278 514.79 473.615C514.607 473.953 514.516 474.349 514.516 474.803L513.142 474.803C513.142 474.104 513.303 473.491 513.625 472.963C513.948 472.436 514.386 472.024 514.941 471.729C515.5 471.434 516.127 471.287 516.821 471.287C517.52 471.287 518.139 471.434 518.679 471.729C519.218 472.024 519.641 472.422 519.948 472.923C520.254 473.423 520.408 473.98 520.408 474.593C520.408 475.032 520.328 475.461 520.169 475.88C520.014 476.295 519.742 476.759 519.354 477.271C518.97 477.78 518.436 478.401 517.753 479.134L515.075 481.998L515.075 482.092L520.617 482.092L520.617 483.372L513.096 483.372Z" fill="#999999"/>
<path d="M121.24 483.372L121.24 482.324L125.175 478.016C125.637 477.512 126.018 477.073 126.317 476.701C126.615 476.324 126.837 475.971 126.98 475.641C127.128 475.307 127.201 474.958 127.201 474.593C127.201 474.174 127.1 473.811 126.899 473.505C126.701 473.198 126.429 472.961 126.084 472.795C125.738 472.628 125.35 472.544 124.919 472.544C124.461 472.544 124.062 472.639 123.72 472.829C123.382 473.016 123.12 473.278 122.934 473.615C122.752 473.953 122.661 474.349 122.661 474.803L121.287 474.803C121.287 474.104 121.448 473.491 121.77 472.963C122.092 472.436 122.531 472.024 123.086 471.729C123.644 471.434 124.271 471.287 124.966 471.287C125.664 471.287 126.284 471.434 126.823 471.729C127.362 472.024 127.785 472.422 128.092 472.923C128.399 473.423 128.552 473.98 128.552 474.593C128.552 475.032 128.472 475.461 128.313 475.88C128.158 476.295 127.886 476.759 127.498 477.271C127.114 477.78 126.58 478.401 125.897 479.134L123.219 481.998L123.219 482.092L128.762 482.092L128.762 483.372L121.24 483.372ZM135.055 483.535C134.178 483.535 133.43 483.297 132.813 482.819C132.196 482.338 131.725 481.641 131.399 480.729C131.073 479.813 130.91 478.707 130.91 477.411C130.91 476.123 131.073 475.022 131.399 474.11C131.729 473.194 132.202 472.496 132.819 472.014C133.44 471.529 134.185 471.287 135.055 471.287C135.924 471.287 136.667 471.529 137.284 472.014C137.905 472.496 138.379 473.194 138.705 474.11C139.035 475.022 139.2 476.123 139.2 477.411C139.2 478.707 139.037 479.813 138.711 480.729C138.385 481.641 137.913 482.338 137.296 482.819C136.679 483.297 135.932 483.535 135.055 483.535ZM135.055 482.255C135.924 482.255 136.599 481.835 137.081 480.997C137.562 480.159 137.802 478.963 137.802 477.411C137.802 476.379 137.692 475.5 137.471 474.774C137.253 474.048 136.939 473.495 136.528 473.115C136.12 472.734 135.629 472.544 135.055 472.544C134.193 472.544 133.52 472.969 133.035 473.819C132.549 474.665 132.307 475.862 132.307 477.411C132.307 478.443 132.416 479.321 132.633 480.042C132.85 480.764 133.163 481.313 133.57 481.69C133.982 482.066 134.476 482.255 135.055 482.255ZM145.603 471.45L145.603 483.372L144.16 483.372L144.16 472.963L144.09 472.963L141.179 474.896L141.179 473.429L144.16 471.45L145.603 471.45ZM152.991 483.535C152.502 483.528 152.013 483.434 151.524 483.256C151.035 483.077 150.589 482.777 150.185 482.354C149.781 481.927 149.457 481.35 149.213 480.625C148.968 479.895 148.846 478.979 148.846 477.877C148.846 476.821 148.945 475.886 149.143 475.071C149.341 474.252 149.628 473.563 150.004 473.004C150.381 472.441 150.835 472.014 151.367 471.723C151.902 471.432 152.506 471.287 153.177 471.287C153.845 471.287 154.439 471.421 154.959 471.688C155.483 471.952 155.91 472.321 156.239 472.795C156.569 473.268 156.783 473.813 156.88 474.43L155.459 474.43C155.327 473.895 155.071 473.45 154.691 473.097C154.311 472.744 153.806 472.567 153.177 472.567C152.254 472.567 151.526 472.969 150.994 473.773C150.466 474.576 150.2 475.703 150.197 477.155L150.29 477.155C150.507 476.825 150.765 476.544 151.064 476.311C151.367 476.074 151.701 475.892 152.065 475.764C152.43 475.635 152.816 475.571 153.224 475.571C153.907 475.571 154.532 475.742 155.098 476.084C155.665 476.421 156.119 476.889 156.461 477.487C156.802 478.081 156.973 478.762 156.973 479.53C156.973 480.267 156.808 480.943 156.478 481.556C156.148 482.165 155.684 482.65 155.087 483.011C154.493 483.368 153.794 483.543 152.991 483.535ZM152.991 482.255C153.48 482.255 153.919 482.132 154.307 481.888C154.699 481.643 155.007 481.315 155.232 480.904C155.461 480.493 155.576 480.035 155.576 479.53C155.576 479.037 155.465 478.589 155.244 478.185C155.027 477.778 154.726 477.454 154.342 477.213C153.961 476.972 153.527 476.852 153.038 476.852C152.669 476.852 152.325 476.926 152.007 477.073C151.689 477.217 151.409 477.415 151.169 477.667C150.932 477.919 150.746 478.209 150.61 478.535C150.474 478.857 150.406 479.196 150.406 479.553C150.406 480.027 150.517 480.469 150.738 480.881C150.963 481.292 151.27 481.624 151.658 481.876C152.05 482.128 152.494 482.255 152.991 482.255Z" fill="#999999"/>
<path d="M112.362 445.953C111.485 445.953 110.738 445.715 110.121 445.237C109.504 444.756 109.032 444.059 108.706 443.147C108.38 442.231 108.217 441.125 108.217 439.829C108.217 438.541 108.38 437.44 108.706 436.528C109.036 435.612 109.51 434.914 110.127 434.433C110.748 433.947 111.493 433.705 112.362 433.705C113.232 433.705 113.975 433.947 114.592 434.433C115.213 434.914 115.686 435.612 116.012 436.528C116.342 437.44 116.507 438.541 116.507 439.829C116.507 441.125 116.344 442.231 116.018 443.147C115.692 444.059 115.221 444.756 114.604 445.237C113.987 445.715 113.239 445.953 112.362 445.953ZM112.362 444.673C113.232 444.673 113.907 444.254 114.388 443.415C114.87 442.577 115.11 441.382 115.11 439.829C115.11 438.797 115 437.918 114.778 437.192C114.561 436.466 114.247 435.913 113.835 435.533C113.428 435.152 112.937 434.962 112.362 434.962C111.501 434.962 110.827 435.387 110.342 436.237C109.857 437.083 109.615 438.281 109.615 439.829C109.615 440.861 109.723 441.739 109.941 442.46C110.158 443.182 110.47 443.732 110.878 444.108C111.289 444.484 111.784 444.673 112.362 444.673Z" fill="#999999"/>
<path d="M98.6621 390.56C98.1731 390.552 97.6841 390.459 97.1951 390.281C96.7061 390.102 96.2598 389.801 95.8561 389.378C95.4525 388.951 95.1285 388.375 94.8839 387.649C94.6394 386.92 94.5172 386.004 94.5172 384.902C94.5172 383.846 94.6162 382.911 94.8141 382.096C95.012 381.277 95.2992 380.588 95.6757 380.029C96.0521 379.466 96.5062 379.039 97.0379 378.748C97.5735 378.457 98.177 378.312 98.8484 378.312C99.516 378.312 100.11 378.445 100.63 378.713C101.154 378.977 101.581 379.346 101.911 379.819C102.24 380.293 102.454 380.838 102.551 381.455L101.13 381.455C100.999 380.92 100.742 380.475 100.362 380.122C99.9817 379.769 99.4772 379.592 98.8484 379.592C97.9247 379.592 97.197 379.994 96.6653 380.797C96.1375 381.601 95.8717 382.728 95.8678 384.18L95.9609 384.18C96.1783 383.85 96.4364 383.568 96.7352 383.336C97.0379 383.099 97.3717 382.916 97.7365 382.788C98.1013 382.66 98.4875 382.596 98.895 382.596C99.5781 382.596 100.203 382.767 100.77 383.108C101.336 383.446 101.79 383.914 102.132 384.511C102.473 385.105 102.644 385.786 102.644 386.555C102.644 387.292 102.479 387.968 102.149 388.581C101.819 389.19 101.356 389.675 100.758 390.036C100.164 390.393 99.4655 390.568 98.6621 390.56ZM98.6621 389.279C99.1512 389.279 99.5897 389.157 99.9778 388.913C100.37 388.668 100.678 388.34 100.903 387.929C101.132 387.517 101.247 387.059 101.247 386.555C101.247 386.062 101.136 385.614 100.915 385.21C100.698 384.803 100.397 384.478 100.013 384.238C99.6324 383.997 99.1977 383.877 98.7087 383.877C98.34 383.877 97.9965 383.951 97.6783 384.098C97.3601 384.242 97.0806 384.44 96.84 384.692C96.6032 384.944 96.417 385.233 96.2811 385.559C96.1453 385.881 96.0774 386.221 96.0774 386.578C96.0774 387.052 96.188 387.494 96.4092 387.905C96.6343 388.317 96.9409 388.649 97.329 388.901C97.721 389.153 98.1654 389.279 98.6621 389.279ZM105.398 390.49C105.111 390.49 104.864 390.387 104.658 390.182C104.453 389.976 104.35 389.73 104.35 389.442C104.35 389.155 104.453 388.909 104.658 388.703C104.864 388.497 105.111 388.394 105.398 388.394C105.685 388.394 105.931 388.497 106.137 388.703C106.343 388.909 106.446 389.155 106.446 389.442C106.446 389.633 106.397 389.807 106.3 389.966C106.207 390.125 106.081 390.253 105.922 390.351C105.766 390.444 105.592 390.49 105.398 390.49ZM112.36 390.56C111.483 390.56 110.736 390.321 110.119 389.844C109.502 389.363 109.03 388.666 108.704 387.754C108.378 386.838 108.215 385.732 108.215 384.436C108.215 383.147 108.378 382.047 108.704 381.135C109.034 380.219 109.508 379.52 110.125 379.039C110.746 378.554 111.491 378.312 112.36 378.312C113.23 378.312 113.973 378.554 114.59 379.039C115.211 379.52 115.684 380.219 116.01 381.135C116.34 382.047 116.505 383.147 116.505 384.436C116.505 385.732 116.342 386.838 116.016 387.754C115.69 388.666 115.219 389.363 114.602 389.844C113.985 390.321 113.237 390.56 112.36 390.56ZM112.36 389.279C113.23 389.279 113.905 388.86 114.386 388.022C114.867 387.184 115.108 385.988 115.108 384.436C115.108 383.403 114.997 382.524 114.776 381.799C114.559 381.073 114.245 380.52 113.833 380.139C113.426 379.759 112.935 379.569 112.36 379.569C111.499 379.569 110.825 379.994 110.34 380.844C109.855 381.69 109.613 382.887 109.613 384.436C109.613 385.468 109.721 386.345 109.939 387.067C110.156 387.789 110.468 388.338 110.876 388.715C111.287 389.091 111.782 389.279 112.36 389.279Z" fill="#999999"/>
<path d="M98.7581 336.346C98.2691 336.338 97.7801 336.245 97.2911 336.066C96.8021 335.888 96.3558 335.587 95.9521 335.164C95.5485 334.737 95.2244 334.161 94.9799 333.435C94.7354 332.705 94.6132 331.789 94.6132 330.687C94.6132 329.631 94.7121 328.696 94.9101 327.881C95.108 327.062 95.3952 326.373 95.7717 325.814C96.1481 325.252 96.6022 324.825 97.1339 324.534C97.6695 324.243 98.273 324.097 98.9444 324.097C99.612 324.097 100.206 324.231 100.726 324.499C101.25 324.763 101.677 325.131 102.007 325.605C102.336 326.078 102.55 326.624 102.647 327.241L101.226 327.241C101.095 326.705 100.838 326.261 100.458 325.908C100.078 325.554 99.5732 325.378 98.9444 325.378C98.0207 325.378 97.293 325.779 96.7613 326.583C96.2335 327.386 95.9677 328.514 95.9638 329.965L96.0569 329.965C96.2743 329.635 96.5324 329.354 96.8312 329.121C97.1339 328.884 97.4677 328.702 97.8325 328.574C98.1973 328.446 98.5835 328.382 98.991 328.382C99.6741 328.382 100.299 328.552 100.866 328.894C101.432 329.232 101.886 329.699 102.228 330.297C102.569 330.891 102.74 331.572 102.74 332.34C102.74 333.078 102.575 333.753 102.245 334.366C101.915 334.976 101.452 335.461 100.854 335.822C100.26 336.179 99.5615 336.353 98.7581 336.346ZM98.7581 335.065C99.2472 335.065 99.6857 334.943 100.074 334.698C100.466 334.454 100.774 334.126 100.999 333.714C101.228 333.303 101.343 332.845 101.343 332.34C101.343 331.847 101.232 331.399 101.011 330.996C100.794 330.588 100.493 330.264 100.109 330.023C99.7284 329.783 99.2937 329.662 98.8047 329.662C98.436 329.662 98.0925 329.736 97.7743 329.884C97.456 330.027 97.1766 330.225 96.936 330.477C96.6992 330.73 96.513 331.019 96.3771 331.345C96.2413 331.667 96.1734 332.007 96.1734 332.364C96.1734 332.837 96.284 333.28 96.5052 333.691C96.7303 334.102 97.0369 334.434 97.425 334.686C97.817 334.939 98.2614 335.065 98.7581 335.065ZM105.494 336.276C105.207 336.276 104.96 336.173 104.754 335.967C104.549 335.762 104.446 335.515 104.446 335.228C104.446 334.941 104.549 334.694 104.754 334.489C104.96 334.283 105.207 334.18 105.494 334.18C105.781 334.18 106.027 334.283 106.233 334.489C106.439 334.694 106.542 334.941 106.542 335.228C106.542 335.418 106.493 335.593 106.396 335.752C106.303 335.911 106.177 336.039 106.018 336.136C105.862 336.229 105.688 336.276 105.494 336.276ZM112.469 336.346C111.786 336.346 111.171 336.21 110.624 335.938C110.077 335.666 109.638 335.294 109.308 334.82C108.978 334.347 108.798 333.807 108.767 333.202L110.164 333.202C110.218 333.741 110.463 334.188 110.898 334.541C111.336 334.89 111.86 335.065 112.469 335.065C112.958 335.065 113.393 334.95 113.773 334.721C114.158 334.492 114.458 334.178 114.676 333.778C114.897 333.375 115.008 332.919 115.008 332.41C115.008 331.89 114.893 331.426 114.664 331.019C114.439 330.607 114.129 330.283 113.733 330.047C113.337 329.81 112.885 329.69 112.376 329.686C112.011 329.682 111.637 329.738 111.253 329.855C110.868 329.967 110.552 330.113 110.304 330.291L108.953 330.128L109.675 324.26L115.869 324.26L115.869 325.541L110.886 325.541L110.467 329.057L110.537 329.057C110.781 328.863 111.088 328.702 111.456 328.574C111.825 328.446 112.209 328.382 112.609 328.382C113.339 328.382 113.989 328.556 114.559 328.906C115.134 329.251 115.584 329.725 115.91 330.326C116.24 330.928 116.405 331.615 116.405 332.387C116.405 333.148 116.234 333.827 115.892 334.425C115.555 335.018 115.089 335.488 114.495 335.833C113.902 336.175 113.226 336.346 112.469 336.346Z" fill="#999999"/>
<path d="M97.3493 280.79L102.682 270.242L102.682 270.149L96.5343 270.149L96.5343 268.868L104.172 268.868L104.172 270.218L98.8629 280.79L97.3493 280.79ZM106.365 279.16L106.272 279.789C106.206 280.232 106.105 280.705 105.97 281.21C105.838 281.714 105.7 282.19 105.556 282.636C105.413 283.082 105.294 283.437 105.201 283.701L104.153 283.701C104.204 283.453 104.27 283.125 104.351 282.717C104.433 282.31 104.514 281.854 104.596 281.349C104.681 280.849 104.751 280.336 104.805 279.812L104.875 279.16L106.365 279.16ZM112.36 280.953C111.483 280.953 110.736 280.715 110.119 280.237C109.502 279.756 109.03 279.059 108.704 278.147C108.378 277.231 108.215 276.125 108.215 274.829C108.215 273.541 108.378 272.44 108.704 271.528C109.034 270.612 109.508 269.914 110.125 269.433C110.746 268.947 111.491 268.705 112.36 268.705C113.23 268.705 113.973 268.947 114.59 269.433C115.211 269.914 115.684 270.612 116.01 271.528C116.34 272.44 116.505 273.541 116.505 274.829C116.505 276.125 116.342 277.231 116.016 278.147C115.69 279.059 115.219 279.756 114.602 280.237C113.984 280.715 113.237 280.953 112.36 280.953ZM112.36 279.673C113.23 279.673 113.905 279.254 114.386 278.415C114.867 277.577 115.108 276.382 115.108 274.829C115.108 273.797 114.997 272.918 114.776 272.192C114.559 271.466 114.244 270.913 113.833 270.533C113.426 270.152 112.935 269.962 112.36 269.962C111.499 269.962 110.825 270.387 110.34 271.237C109.855 272.083 109.612 273.281 109.612 274.829C109.612 275.861 109.721 276.739 109.938 277.46C110.156 278.182 110.468 278.732 110.876 279.108C111.287 279.484 111.782 279.673 112.36 279.673Z" fill="#999999"/>
<path d="M97.4454 225.398L102.778 214.849L102.778 214.756L96.6304 214.756L96.6304 213.475L104.268 213.475L104.268 214.826L98.959 225.398L97.4454 225.398ZM106.462 223.768L106.368 224.397C106.302 224.839 106.202 225.313 106.066 225.817C105.934 226.322 105.796 226.797 105.652 227.244C105.509 227.69 105.39 228.045 105.297 228.309L104.249 228.309C104.3 228.06 104.366 227.733 104.447 227.325C104.529 226.918 104.61 226.461 104.692 225.957C104.777 225.456 104.847 224.944 104.901 224.42L104.971 223.768L106.462 223.768ZM112.469 225.561C111.786 225.561 111.171 225.425 110.624 225.154C110.077 224.882 109.638 224.509 109.308 224.036C108.978 223.562 108.798 223.023 108.767 222.417L110.164 222.417C110.218 222.957 110.463 223.403 110.898 223.756C111.336 224.106 111.86 224.28 112.469 224.28C112.958 224.28 113.393 224.166 113.773 223.937C114.158 223.708 114.458 223.394 114.676 222.994C114.897 222.59 115.008 222.134 115.008 221.626C115.008 221.106 114.893 220.642 114.664 220.234C114.439 219.823 114.129 219.499 113.733 219.262C113.337 219.025 112.885 218.905 112.376 218.901C112.011 218.897 111.637 218.954 111.253 219.07C110.868 219.183 110.552 219.328 110.304 219.507L108.953 219.344L109.675 213.475L115.869 213.475L115.869 214.756L110.886 214.756L110.467 218.272L110.537 218.272C110.781 218.078 111.088 217.917 111.456 217.789C111.825 217.661 112.209 217.597 112.609 217.597C113.339 217.597 113.989 217.772 114.559 218.121C115.134 218.467 115.584 218.94 115.91 219.542C116.24 220.143 116.405 220.83 116.405 221.602C116.405 222.363 116.234 223.042 115.892 223.64C115.555 224.234 115.089 224.703 114.495 225.049C113.902 225.39 113.226 225.561 112.469 225.561Z" fill="#999999"/>
<path d="M98.4583 172.524C97.6588 172.524 96.9525 172.383 96.3393 172.099C95.73 171.812 95.2545 171.418 94.913 170.918C94.5715 170.413 94.4026 169.839 94.4065 169.194C94.4026 168.69 94.5016 168.224 94.7034 167.797C94.9052 167.366 95.1808 167.007 95.5301 166.72C95.8833 166.429 96.2772 166.245 96.7119 166.167L96.7119 166.097C96.1413 165.95 95.6873 165.63 95.3496 165.137C95.012 164.64 94.8451 164.075 94.849 163.443C94.8451 162.837 94.9984 162.296 95.3089 161.818C95.6193 161.341 96.0463 160.965 96.5896 160.689C97.1368 160.414 97.7597 160.276 98.4583 160.276C99.1492 160.276 99.7662 160.414 100.31 160.689C100.853 160.965 101.28 161.341 101.59 161.818C101.905 162.296 102.064 162.837 102.068 163.443C102.064 164.075 101.891 164.64 101.55 165.137C101.212 165.63 100.764 165.95 100.205 166.097L100.205 166.167C100.636 166.245 101.024 166.429 101.369 166.72C101.715 167.007 101.99 167.366 102.196 167.797C102.401 168.224 102.506 168.69 102.51 169.194C102.506 169.839 102.332 170.413 101.986 170.918C101.645 171.418 101.169 171.812 100.56 172.099C99.9545 172.383 99.2539 172.524 98.4583 172.524ZM98.4583 171.244C98.9978 171.244 99.4635 171.156 99.8555 170.982C100.247 170.807 100.55 170.561 100.764 170.242C100.977 169.924 101.086 169.551 101.09 169.125C101.086 168.674 100.969 168.277 100.74 167.931C100.511 167.586 100.199 167.314 99.8031 167.116C99.4111 166.918 98.9629 166.819 98.4583 166.819C97.9499 166.819 97.4958 166.918 97.0961 167.116C96.7002 167.314 96.3878 167.586 96.1588 167.931C95.9337 168.277 95.8231 168.674 95.827 169.125C95.8231 169.551 95.9259 169.924 96.1355 170.242C96.349 170.561 96.6536 170.807 97.0495 170.982C97.4454 171.156 97.915 171.244 98.4583 171.244ZM98.4583 165.585C98.8852 165.585 99.2636 165.5 99.5935 165.329C99.9273 165.158 100.189 164.919 100.379 164.613C100.57 164.306 100.667 163.947 100.671 163.536C100.667 163.132 100.572 162.781 100.385 162.482C100.199 162.179 99.9409 161.947 99.611 161.784C99.2811 161.617 98.8969 161.533 98.4583 161.533C98.012 161.533 97.622 161.617 97.2882 161.784C96.9544 161.947 96.6963 162.179 96.5139 162.482C96.3315 162.781 96.2422 163.132 96.2461 163.536C96.2422 163.947 96.3335 164.306 96.5197 164.613C96.7099 164.919 96.9719 165.158 97.3057 165.329C97.6394 165.5 98.0237 165.585 98.4583 165.585ZM105.398 172.454C105.11 172.454 104.864 172.352 104.658 172.146C104.453 171.94 104.35 171.694 104.35 171.407C104.35 171.119 104.453 170.873 104.658 170.667C104.864 170.462 105.11 170.359 105.398 170.359C105.685 170.359 105.931 170.462 106.137 170.667C106.343 170.873 106.446 171.119 106.446 171.407C106.446 171.597 106.397 171.771 106.3 171.931C106.207 172.09 106.081 172.218 105.922 172.315C105.766 172.408 105.592 172.454 105.398 172.454ZM112.36 172.524C111.483 172.524 110.736 172.286 110.119 171.808C109.502 171.327 109.03 170.63 108.704 169.718C108.378 168.802 108.215 167.696 108.215 166.4C108.215 165.112 108.378 164.011 108.704 163.099C109.034 162.183 109.508 161.485 110.125 161.003C110.746 160.518 111.491 160.276 112.36 160.276C113.23 160.276 113.973 160.518 114.59 161.003C115.211 161.485 115.684 162.183 116.01 163.099C116.34 164.011 116.505 165.112 116.505 166.4C116.505 167.696 116.342 168.802 116.016 169.718C115.69 170.63 115.219 171.327 114.602 171.808C113.984 172.286 113.237 172.524 112.36 172.524ZM112.36 171.244C113.23 171.244 113.905 170.824 114.386 169.986C114.867 169.148 115.108 167.952 115.108 166.4C115.108 165.368 114.997 164.489 114.776 163.763C114.559 163.037 114.244 162.484 113.833 162.104C113.426 161.723 112.935 161.533 112.36 161.533C111.499 161.533 110.825 161.958 110.34 162.808C109.855 163.654 109.612 164.852 109.612 166.4C109.612 167.432 109.721 168.31 109.938 169.031C110.156 169.753 110.468 170.302 110.876 170.679C111.287 171.055 111.782 171.244 112.36 171.244Z" fill="#999999"/>
<path d="M96.346 103.23C96.2824 102.589 96.0099 102.092 95.5283 101.737C95.0467 101.383 94.3931 101.206 93.5675 101.206C93.0065 101.206 92.5328 101.285 92.1465 101.444C91.7601 101.597 91.4638 101.812 91.2574 102.087C91.0563 102.362 90.9557 102.674 90.9557 103.023C90.9451 103.315 91.006 103.569 91.1383 103.786C91.2759 104.003 91.4638 104.19 91.7019 104.349C91.9401 104.503 92.2153 104.638 92.5275 104.754C92.8398 104.865 93.1732 104.96 93.5278 105.04L94.9885 105.389C95.6976 105.548 96.3486 105.76 96.9413 106.024C97.5341 106.289 98.0474 106.614 98.4814 107.001C98.9154 107.387 99.2515 107.842 99.4896 108.366C99.7331 108.89 99.8574 109.491 99.8627 110.168C99.8574 111.163 99.6034 112.026 99.1006 112.756C98.6031 113.481 97.8834 114.045 96.9413 114.447C96.0046 114.844 94.8747 115.042 93.5516 115.042C92.2391 115.042 91.096 114.841 90.1222 114.439C89.1537 114.037 88.3969 113.441 87.8518 112.653C87.3119 111.859 87.0288 110.877 87.0023 109.708L90.3286 109.708C90.3656 110.253 90.5217 110.708 90.7969 111.073C91.0774 111.433 91.4505 111.706 91.9163 111.891C92.3873 112.071 92.9192 112.161 93.5119 112.161C94.0941 112.161 94.5995 112.076 95.0282 111.907C95.4621 111.737 95.7982 111.502 96.0364 111.2C96.2745 110.898 96.3936 110.552 96.3936 110.16C96.3936 109.795 96.2851 109.488 96.0681 109.239C95.8564 108.991 95.5442 108.779 95.1314 108.604C94.7239 108.43 94.2237 108.271 93.631 108.128L91.8607 107.683C90.49 107.35 89.4077 106.829 88.6139 106.119C87.82 105.41 87.4257 104.455 87.431 103.254C87.4257 102.269 87.6877 101.409 88.2169 100.674C88.7515 99.938 89.4844 99.3638 90.4159 98.951C91.3473 98.5382 92.4058 98.3318 93.5913 98.3318C94.7979 98.3318 95.8511 98.5382 96.7508 98.951C97.6558 99.3638 98.3597 99.938 98.8625 100.674C99.3652 101.409 99.6246 102.261 99.6404 103.23L96.346 103.23ZM105.588 115.042C104.81 115.042 104.117 114.907 103.508 114.637C102.9 114.362 102.418 113.957 102.064 113.423C101.714 112.883 101.54 112.211 101.54 111.407C101.54 110.729 101.664 110.16 101.913 109.7C102.162 109.239 102.5 108.869 102.929 108.588C103.358 108.308 103.845 108.096 104.39 107.953C104.94 107.81 105.517 107.71 106.12 107.652C106.829 107.578 107.401 107.509 107.835 107.445C108.269 107.376 108.584 107.276 108.78 107.144C108.975 107.011 109.073 106.815 109.073 106.556L109.073 106.508C109.073 106.006 108.915 105.617 108.597 105.341C108.285 105.066 107.84 104.929 107.263 104.929C106.655 104.929 106.171 105.064 105.811 105.334C105.451 105.598 105.213 105.932 105.096 106.334L101.968 106.08C102.127 105.339 102.439 104.698 102.905 104.159C103.371 103.614 103.972 103.195 104.707 102.904C105.448 102.608 106.305 102.46 107.279 102.46C107.957 102.46 108.605 102.539 109.224 102.698C109.849 102.857 110.402 103.103 110.883 103.436C111.37 103.77 111.754 104.198 112.034 104.722C112.315 105.241 112.455 105.863 112.455 106.588L112.455 114.812L109.248 114.812L109.248 113.121L109.153 113.121C108.957 113.502 108.695 113.838 108.367 114.129C108.039 114.415 107.644 114.64 107.184 114.804C106.724 114.963 106.192 115.042 105.588 115.042ZM106.557 112.708C107.054 112.708 107.494 112.611 107.875 112.415C108.256 112.214 108.555 111.944 108.772 111.605C108.989 111.266 109.097 110.883 109.097 110.454L109.097 109.16C108.991 109.229 108.846 109.292 108.661 109.35C108.481 109.403 108.277 109.454 108.049 109.501C107.822 109.544 107.594 109.583 107.367 109.62C107.139 109.652 106.933 109.681 106.747 109.708C106.35 109.766 106.004 109.859 105.707 109.986C105.411 110.113 105.181 110.285 105.017 110.502C104.853 110.713 104.771 110.978 104.771 111.295C104.771 111.756 104.937 112.108 105.271 112.351C105.61 112.589 106.038 112.708 106.557 112.708ZM118.461 98.5541L118.461 114.812L115.079 114.812L115.079 98.5541L118.461 98.5541ZM126.727 115.05C125.472 115.05 124.393 114.796 123.488 114.288C122.588 113.775 121.895 113.05 121.408 112.113C120.921 111.171 120.677 110.057 120.677 108.771C120.677 107.517 120.921 106.416 121.408 105.469C121.895 104.521 122.58 103.783 123.464 103.254C124.353 102.724 125.396 102.46 126.592 102.46C127.396 102.46 128.145 102.589 128.838 102.849C129.537 103.103 130.145 103.487 130.664 104C131.188 104.513 131.596 105.159 131.887 105.937C132.178 106.71 132.323 107.615 132.323 108.652L132.323 109.581L122.027 109.581L122.027 107.485L129.14 107.485C129.14 106.998 129.034 106.567 128.822 106.191C128.611 105.815 128.317 105.521 127.941 105.31C127.571 105.093 127.139 104.984 126.647 104.984C126.134 104.984 125.679 105.103 125.282 105.341C124.89 105.574 124.583 105.889 124.361 106.286C124.139 106.678 124.025 107.114 124.02 107.596L124.02 109.589C124.02 110.192 124.131 110.713 124.353 111.152C124.581 111.592 124.901 111.93 125.314 112.169C125.726 112.407 126.216 112.526 126.782 112.526C127.158 112.526 127.502 112.473 127.814 112.367C128.126 112.261 128.394 112.102 128.616 111.891C128.838 111.679 129.008 111.42 129.124 111.113L132.252 111.319C132.093 112.071 131.768 112.727 131.275 113.288C130.788 113.844 130.159 114.278 129.386 114.59C128.619 114.897 127.732 115.05 126.727 115.05ZM144.676 106.096L141.58 106.286C141.527 106.022 141.413 105.783 141.238 105.572C141.064 105.355 140.833 105.183 140.548 105.056C140.267 104.923 139.931 104.857 139.539 104.857C139.015 104.857 138.574 104.968 138.214 105.191C137.854 105.408 137.674 105.699 137.674 106.064C137.674 106.355 137.79 106.601 138.023 106.802C138.256 107.003 138.656 107.165 139.222 107.286L141.429 107.731C142.614 107.974 143.498 108.366 144.08 108.906C144.662 109.446 144.953 110.155 144.953 111.033C144.953 111.833 144.718 112.534 144.247 113.137C143.781 113.74 143.141 114.211 142.326 114.55C141.516 114.884 140.582 115.05 139.523 115.05C137.909 115.05 136.623 114.714 135.665 114.042C134.713 113.365 134.154 112.444 133.99 111.28L137.317 111.105C137.417 111.597 137.661 111.973 138.047 112.232C138.433 112.486 138.928 112.613 139.531 112.613C140.124 112.613 140.6 112.499 140.96 112.272C141.326 112.039 141.511 111.74 141.516 111.375C141.511 111.068 141.381 110.816 141.127 110.621C140.873 110.419 140.481 110.266 139.952 110.16L137.841 109.739C136.65 109.501 135.763 109.088 135.181 108.501C134.604 107.914 134.316 107.165 134.316 106.254C134.316 105.471 134.528 104.796 134.951 104.23C135.38 103.664 135.98 103.227 136.753 102.92C137.531 102.613 138.441 102.46 139.484 102.46C141.024 102.46 142.236 102.785 143.12 103.436C144.009 104.087 144.527 104.974 144.676 106.096ZM152.32 114.812L152.32 98.5541L158.735 98.5541C159.968 98.5541 161.018 98.7896 161.886 99.2606C162.754 99.7263 163.416 100.375 163.871 101.206C164.331 102.031 164.562 102.984 164.562 104.063C164.562 105.143 164.329 106.096 163.863 106.921C163.397 107.747 162.722 108.39 161.839 108.85C160.96 109.311 159.896 109.541 158.647 109.541L154.559 109.541L154.559 106.786L158.092 106.786C158.753 106.786 159.298 106.673 159.727 106.445C160.161 106.212 160.484 105.892 160.695 105.484C160.912 105.072 161.021 104.598 161.021 104.063C161.021 103.524 160.912 103.053 160.695 102.65C160.484 102.243 160.161 101.928 159.727 101.706C159.293 101.478 158.743 101.364 158.076 101.364L155.758 101.364L155.758 114.812L152.32 114.812ZM166.731 114.812L166.731 102.619L170.009 102.619L170.009 104.746L170.136 104.746C170.359 103.989 170.732 103.418 171.256 103.031C171.78 102.64 172.383 102.444 173.066 102.444C173.235 102.444 173.418 102.455 173.613 102.476C173.809 102.497 173.981 102.526 174.129 102.563L174.129 105.564C173.971 105.516 173.751 105.474 173.471 105.437C173.19 105.4 172.933 105.381 172.7 105.381C172.203 105.381 171.758 105.49 171.367 105.707C170.98 105.918 170.674 106.215 170.446 106.596C170.224 106.977 170.113 107.416 170.113 107.914L170.113 114.812L166.731 114.812ZM180.82 115.05C179.586 115.05 178.52 114.788 177.62 114.264C176.726 113.735 176.035 113 175.548 112.057C175.062 111.11 174.818 110.012 174.818 108.763C174.818 107.503 175.062 106.403 175.548 105.461C176.035 104.513 176.726 103.778 177.62 103.254C178.52 102.724 179.586 102.46 180.82 102.46C182.053 102.46 183.116 102.724 184.011 103.254C184.911 103.778 185.604 104.513 186.091 105.461C186.578 106.403 186.821 107.503 186.821 108.763C186.821 110.012 186.578 111.11 186.091 112.057C185.604 113 184.911 113.735 184.011 114.264C183.116 114.788 182.053 115.05 180.82 115.05ZM180.835 112.431C181.396 112.431 181.865 112.272 182.241 111.954C182.616 111.631 182.899 111.192 183.09 110.636C183.286 110.081 183.384 109.448 183.384 108.739C183.384 108.03 183.286 107.398 183.09 106.842C182.899 106.286 182.616 105.847 182.241 105.524C181.865 105.201 181.396 105.04 180.835 105.04C180.269 105.04 179.793 105.201 179.407 105.524C179.026 105.847 178.737 106.286 178.541 106.842C178.351 107.398 178.255 108.03 178.255 108.739C178.255 109.448 178.351 110.081 178.541 110.636C178.737 111.192 179.026 111.631 179.407 111.954C179.793 112.272 180.269 112.431 180.835 112.431ZM194.514 119.639C193.418 119.639 192.479 119.488 191.695 119.186C190.917 118.89 190.298 118.485 189.838 117.972C189.377 117.458 189.078 116.881 188.941 116.241L192.068 115.82C192.164 116.064 192.315 116.291 192.521 116.503C192.727 116.715 193 116.884 193.339 117.011C193.683 117.143 194.101 117.21 194.593 117.21C195.329 117.21 195.935 117.03 196.411 116.67C196.892 116.315 197.133 115.72 197.133 114.884L197.133 112.653L196.99 112.653C196.842 112.992 196.62 113.312 196.324 113.613C196.027 113.915 195.646 114.161 195.18 114.352C194.715 114.542 194.159 114.637 193.513 114.637C192.598 114.637 191.764 114.426 191.013 114.002C190.266 113.574 189.671 112.92 189.226 112.042C188.787 111.158 188.568 110.041 188.568 108.692C188.568 107.31 188.793 106.157 189.242 105.23C189.692 104.304 190.29 103.611 191.036 103.15C191.788 102.69 192.611 102.46 193.505 102.46C194.188 102.46 194.76 102.576 195.22 102.809C195.68 103.037 196.051 103.322 196.331 103.666C196.617 104.005 196.837 104.339 196.99 104.667L197.117 104.667L197.117 102.619L200.475 102.619L200.475 114.931C200.475 115.969 200.221 116.836 199.713 117.535C199.205 118.234 198.501 118.758 197.602 119.107C196.707 119.461 195.678 119.639 194.514 119.639ZM194.585 112.097C195.13 112.097 195.591 111.962 195.966 111.692C196.347 111.417 196.638 111.025 196.84 110.517C197.046 110.004 197.149 109.39 197.149 108.676C197.149 107.961 197.049 107.342 196.847 106.818C196.646 106.289 196.355 105.879 195.974 105.588C195.593 105.297 195.13 105.151 194.585 105.151C194.029 105.151 193.561 105.302 193.18 105.603C192.799 105.9 192.51 106.313 192.315 106.842C192.119 107.371 192.021 107.982 192.021 108.676C192.021 109.38 192.119 109.988 192.315 110.502C192.516 111.01 192.804 111.404 193.18 111.684C193.561 111.96 194.029 112.097 194.585 112.097ZM203.167 114.812L203.167 102.619L206.445 102.619L206.445 104.746L206.572 104.746C206.794 103.989 207.168 103.418 207.691 103.031C208.215 102.64 208.819 102.444 209.501 102.444C209.671 102.444 209.853 102.455 210.049 102.476C210.245 102.497 210.417 102.526 210.565 102.563L210.565 105.564C210.406 105.516 210.187 105.474 209.906 105.437C209.626 105.4 209.369 105.381 209.136 105.381C208.639 105.381 208.194 105.49 207.803 105.707C207.416 105.918 207.109 106.215 206.882 106.596C206.659 106.977 206.548 107.416 206.548 107.914L206.548 114.812L203.167 114.812ZM217.303 115.05C216.049 115.05 214.969 114.796 214.064 114.288C213.164 113.775 212.471 113.05 211.984 112.113C211.497 111.171 211.254 110.057 211.254 108.771C211.254 107.517 211.497 106.416 211.984 105.469C212.471 104.521 213.156 103.783 214.04 103.254C214.929 102.724 215.972 102.46 217.168 102.46C217.972 102.46 218.721 102.589 219.415 102.849C220.113 103.103 220.722 103.487 221.241 104C221.764 104.513 222.172 105.159 222.463 105.937C222.754 106.71 222.9 107.615 222.9 108.652L222.9 109.581L212.603 109.581L212.603 107.485L219.716 107.485C219.716 106.998 219.61 106.567 219.399 106.191C219.187 105.815 218.893 105.521 218.518 105.31C218.147 105.093 217.716 104.984 217.224 104.984C216.71 104.984 216.255 105.103 215.858 105.342C215.467 105.574 215.16 105.889 214.937 106.286C214.715 106.678 214.601 107.114 214.596 107.596L214.596 109.589C214.596 110.192 214.707 110.713 214.929 111.152C215.157 111.592 215.477 111.93 215.89 112.169C216.303 112.407 216.792 112.526 217.359 112.526C217.734 112.526 218.078 112.473 218.391 112.367C218.703 112.261 218.97 112.102 219.192 111.891C219.415 111.679 219.584 111.42 219.7 111.113L222.828 111.319C222.669 112.071 222.344 112.727 221.852 113.288C221.365 113.844 220.735 114.278 219.962 114.59C219.195 114.897 218.309 115.05 217.303 115.05ZM235.252 106.096L232.156 106.286C232.103 106.022 231.989 105.783 231.815 105.572C231.64 105.355 231.41 105.183 231.124 105.056C230.843 104.923 230.507 104.857 230.116 104.857C229.592 104.857 229.15 104.968 228.79 105.191C228.43 105.408 228.25 105.699 228.25 106.064C228.25 106.355 228.367 106.601 228.599 106.802C228.832 107.003 229.232 107.165 229.798 107.286L232.005 107.731C233.191 107.974 234.074 108.366 234.657 108.906C235.239 109.446 235.53 110.155 235.53 111.033C235.53 111.833 235.294 112.534 234.823 113.137C234.358 113.74 233.717 114.211 232.902 114.55C232.092 114.884 231.158 115.05 230.1 115.05C228.486 115.05 227.2 114.714 226.242 114.042C225.289 113.365 224.731 112.444 224.567 111.28L227.893 111.105C227.994 111.597 228.237 111.973 228.623 112.232C229.01 112.486 229.504 112.613 230.108 112.613C230.701 112.613 231.177 112.499 231.537 112.272C231.902 112.039 232.087 111.74 232.092 111.375C232.087 111.068 231.957 110.816 231.703 110.621C231.449 110.42 231.058 110.266 230.529 110.16L228.417 109.739C227.226 109.501 226.34 109.088 225.758 108.501C225.181 107.914 224.892 107.165 224.892 106.254C224.892 105.471 225.104 104.796 225.527 104.23C225.956 103.664 226.557 103.227 227.329 102.92C228.107 102.613 229.018 102.46 230.06 102.46C231.6 102.46 232.812 102.785 233.696 103.436C234.585 104.087 235.104 104.974 235.252 106.096ZM247.805 106.096L244.709 106.286C244.656 106.022 244.542 105.783 244.367 105.572C244.193 105.355 243.962 105.183 243.677 105.056C243.396 104.923 243.06 104.857 242.669 104.857C242.145 104.857 241.703 104.968 241.343 105.191C240.983 105.408 240.803 105.699 240.803 106.064C240.803 106.355 240.919 106.601 241.152 106.802C241.385 107.003 241.785 107.165 242.351 107.286L244.558 107.731C245.743 107.974 246.627 108.366 247.209 108.906C247.791 109.446 248.083 110.155 248.083 111.033C248.083 111.833 247.847 112.534 247.376 113.137C246.91 113.74 246.27 114.211 245.455 114.55C244.645 114.884 243.711 115.05 242.653 115.05C241.038 115.05 239.752 114.714 238.795 114.042C237.842 113.365 237.284 112.444 237.119 111.28L240.446 111.105C240.546 111.597 240.79 111.973 241.176 112.232C241.562 112.486 242.057 112.613 242.661 112.613C243.253 112.613 243.73 112.499 244.09 112.272C244.455 112.039 244.64 111.74 244.645 111.375C244.64 111.068 244.51 110.816 244.256 110.621C244.002 110.42 243.611 110.266 243.081 110.16L240.97 109.739C239.779 109.501 238.892 109.088 238.31 108.501C237.733 107.914 237.445 107.165 237.445 106.254C237.445 105.471 237.657 104.796 238.08 104.23C238.509 103.664 239.109 103.227 239.882 102.92C240.66 102.613 241.57 102.46 242.613 102.46C244.153 102.46 245.365 102.785 246.249 103.436C247.138 104.087 247.657 104.974 247.805 106.096Z" fill="#12141D"/>
</g>
<defs>
<filter id="filter0_d_1_753" x="0.700005" y="0.766789" width="650.71" height="606" filterUnits="userSpaceOnUse" color-interpolation-filters="sRGB">
<feFlood flood-opacity="0" result="BackgroundImageFix"/>
<feColorMatrix in="SourceAlpha" type="matrix" values="0 0 0 0 0 0 0 0 0 0 0 0 0 0 0 0 0 0 127 0" result="hardAlpha"/>
<feOffset dy="4.8"/>
<feGaussianBlur stdDeviation="36"/>
<feComposite in2="hardAlpha" operator="out"/>
<feColorMatrix type="matrix" values="0 0 0 0 0 0 0 0 0 0 0 0 0 0 0 0 0 0 0.08 0"/>
<feBlend mode="normal" in2="BackgroundImageFix" result="effect1_dropShadow_1_753"/>
<feBlend mode="normal" in="SourceGraphic" in2="effect1_dropShadow_1_753" result="shape"/>
</filter>
<filter id="filter1_dd_1_753" x="381.943" y="233.655" width="32.7871" height="32.7871" filterUnits="userSpaceOnUse" color-interpolation-filters="sRGB">
<feFlood flood-opacity="0" result="BackgroundImageFix"/>
<feColorMatrix in="SourceAlpha" type="matrix" values="0 0 0 0 0 0 0 0 0 0 0 0 0 0 0 0 0 0 127 0" result="hardAlpha"/>
<feOffset dy="2.98065"/>
<feGaussianBlur stdDeviation="2.98065"/>
<feColorMatrix type="matrix" values="0 0 0 0 0.196487 0 0 0 0 0.196487 0 0 0 0 0.279476 0 0 0 0.06 0"/>
<feBlend mode="multiply" in2="BackgroundImageFix" result="effect1_dropShadow_1_753"/>
<feColorMatrix in="SourceAlpha" type="matrix" values="0 0 0 0 0 0 0 0 0 0 0 0 0 0 0 0 0 0 127 0" result="hardAlpha"/>
<feOffset dy="2.98065"/>
<feGaussianBlur stdDeviation="1.49032"/>
<feColorMatrix type="matrix" values="0 0 0 0 0.196487 0 0 0 0 0.196487 0 0 0 0 0.279476 0 0 0 0.06 0"/>
<feBlend mode="multiply" in2="effect1_dropShadow_1_753" result="effect2_dropShadow_1_753"/>
<feBlend mode="normal" in="SourceGraphic" in2="effect2_dropShadow_1_753" result="shape"/>
</filter>
<filter id="filter2_dd_1_753" x="474.34" y="199.377" width="32.7871" height="32.7871" filterUnits="userSpaceOnUse" color-interpolation-filters="sRGB">
<feFlood flood-opacity="0" result="BackgroundImageFix"/>
<feColorMatrix in="SourceAlpha" type="matrix" values="0 0 0 0 0 0 0 0 0 0 0 0 0 0 0 0 0 0 127 0" result="hardAlpha"/>
<feOffset dy="2.98065"/>
<feGaussianBlur stdDeviation="2.98065"/>
<feColorMatrix type="matrix" values="0 0 0 0 0.196487 0 0 0 0 0.196487 0 0 0 0 0.279476 0 0 0 0.06 0"/>
<feBlend mode="multiply" in2="BackgroundImageFix" result="effect1_dropShadow_1_753"/>
<feColorMatrix in="SourceAlpha" type="matrix" values="0 0 0 0 0 0 0 0 0 0 0 0 0 0 0 0 0 0 127 0" result="hardAlpha"/>
<feOffset dy="2.98065"/>
<feGaussianBlur stdDeviation="1.49032"/>
<feColorMatrix type="matrix" values="0 0 0 0 0.196487 0 0 0 0 0.196487 0 0 0 0 0.279476 0 0 0 0.06 0"/>
<feBlend mode="multiply" in2="effect1_dropShadow_1_753" result="effect2_dropShadow_1_753"/>
<feBlend mode="normal" in="SourceGraphic" in2="effect2_dropShadow_1_753" result="shape"/>
</filter>
<filter id="filter3_dd_1_753" x="431.121" y="284.325" width="32.7871" height="32.7871" filterUnits="userSpaceOnUse" color-interpolation-filters="sRGB">
<feFlood flood-opacity="0" result="BackgroundImageFix"/>
<feColorMatrix in="SourceAlpha" type="matrix" values="0 0 0 0 0 0 0 0 0 0 0 0 0 0 0 0 0 0 127 0" result="hardAlpha"/>
<feOffset dy="2.98065"/>
<feGaussianBlur stdDeviation="2.98065"/>
<feColorMatrix type="matrix" values="0 0 0 0 0.196487 0 0 0 0 0.196487 0 0 0 0 0.279476 0 0 0 0.06 0"/>
<feBlend mode="multiply" in2="BackgroundImageFix" result="effect1_dropShadow_1_753"/>
<feColorMatrix in="SourceAlpha" type="matrix" values="0 0 0 0 0 0 0 0 0 0 0 0 0 0 0 0 0 0 127 0" result="hardAlpha"/>
<feOffset dy="2.98065"/>
<feGaussianBlur stdDeviation="1.49032"/>
<feColorMatrix type="matrix" values="0 0 0 0 0.196487 0 0 0 0 0.196487 0 0 0 0 0.279476 0 0 0 0.06 0"/>
<feBlend mode="multiply" in2="effect1_dropShadow_1_753" result="effect2_dropShadow_1_753"/>
<feBlend mode="normal" in="SourceGraphic" in2="effect2_dropShadow_1_753" result="shape"/>
</filter>
<filter id="filter4_dd_1_753" x="331.273" y="258.99" width="32.7871" height="32.7871" filterUnits="userSpaceOnUse" color-interpolation-filters="sRGB">
<feFlood flood-opacity="0" result="BackgroundImageFix"/>
<feColorMatrix in="SourceAlpha" type="matrix" values="0 0 0 0 0 0 0 0 0 0 0 0 0 0 0 0 0 0 127 0" result="hardAlpha"/>
<feOffset dy="2.98065"/>
<feGaussianBlur stdDeviation="2.98065"/>
<feColorMatrix type="matrix" values="0 0 0 0 0.196487 0 0 0 0 0.196487 0 0 0 0 0.279476 0 0 0 0.06 0"/>
<feBlend mode="multiply" in2="BackgroundImageFix" result="effect1_dropShadow_1_753"/>
<feColorMatrix in="SourceAlpha" type="matrix" values="0 0 0 0 0 0 0 0 0 0 0 0 0 0 0 0 0 0 127 0" result="hardAlpha"/>
<feOffset dy="2.98065"/>
<feGaussianBlur stdDeviation="1.49032"/>
<feColorMatrix type="matrix" values="0 0 0 0 0.196487 0 0 0 0 0.196487 0 0 0 0 0.279476 0 0 0 0.06 0"/>
<feBlend mode="multiply" in2="effect1_dropShadow_1_753" result="effect2_dropShadow_1_753"/>
<feBlend mode="normal" in="SourceGraphic" in2="effect2_dropShadow_1_753" result="shape"/>
</filter>
<filter id="filter5_dd_1_753" x="273.15" y="336.487" width="32.7871" height="32.7871" filterUnits="userSpaceOnUse" color-interpolation-filters="sRGB">
<feFlood flood-opacity="0" result="BackgroundImageFix"/>
<feColorMatrix in="SourceAlpha" type="matrix" values="0 0 0 0 0 0 0 0 0 0 0 0 0 0 0 0 0 0 127 0" result="hardAlpha"/>
<feOffset dy="2.98065"/>
<feGaussianBlur stdDeviation="2.98065"/>
<feColorMatrix type="matrix" values="0 0 0 0 0.196487 0 0 0 0 0.196487 0 0 0 0 0.279476 0 0 0 0.06 0"/>
<feBlend mode="multiply" in2="BackgroundImageFix" result="effect1_dropShadow_1_753"/>
<feColorMatrix in="SourceAlpha" type="matrix" values="0 0 0 0 0 0 0 0 0 0 0 0 0 0 0 0 0 0 127 0" result="hardAlpha"/>
<feOffset dy="2.98065"/>
<feGaussianBlur stdDeviation="1.49032"/>
<feColorMatrix type="matrix" values="0 0 0 0 0.196487 0 0 0 0 0.196487 0 0 0 0 0.279476 0 0 0 0.06 0"/>
<feBlend mode="multiply" in2="effect1_dropShadow_1_753" result="effect2_dropShadow_1_753"/>
<feBlend mode="normal" in="SourceGraphic" in2="effect2_dropShadow_1_753" result="shape"/>
</filter>
<filter id="filter6_dd_1_753" x="222.476" y="309.661" width="32.7871" height="32.7871" filterUnits="userSpaceOnUse" color-interpolation-filters="sRGB">
<feFlood flood-opacity="0" result="BackgroundImageFix"/>
<feColorMatrix in="SourceAlpha" type="matrix" values="0 0 0 0 0 0 0 0 0 0 0 0 0 0 0 0 0 0 127 0" result="hardAlpha"/>
<feOffset dy="2.98065"/>
<feGaussianBlur stdDeviation="2.98065"/>
<feColorMatrix type="matrix" values="0 0 0 0 0.196487 0 0 0 0 0.196487 0 0 0 0 0.279476 0 0 0 0.06 0"/>
<feBlend mode="multiply" in2="BackgroundImageFix" result="effect1_dropShadow_1_753"/>
<feColorMatrix in="SourceAlpha" type="matrix" values="0 0 0 0 0 0 0 0 0 0 0 0 0 0 0 0 0 0 127 0" result="hardAlpha"/>
<feOffset dy="2.98065"/>
<feGaussianBlur stdDeviation="1.49032"/>
<feColorMatrix type="matrix" values="0 0 0 0 0.196487 0 0 0 0 0.196487 0 0 0 0 0.279476 0 0 0 0.06 0"/>
<feBlend mode="multiply" in2="effect1_dropShadow_1_753" result="effect2_dropShadow_1_753"/>
<feBlend mode="normal" in="SourceGraphic" in2="effect2_dropShadow_1_753" result="shape"/>
</filter>
<filter id="filter7_dd_1_753" x="167.337" y="382.686" width="32.7871" height="32.7871" filterUnits="userSpaceOnUse" color-interpolation-filters="sRGB">
<feFlood flood-opacity="0" result="BackgroundImageFix"/>
<feColorMatrix in="SourceAlpha" type="matrix" values="0 0 0 0 0 0 0 0 0 0 0 0 0 0 0 0 0 0 127 0" result="hardAlpha"/>
<feOffset dy="2.98065"/>
<feGaussianBlur stdDeviation="2.98065"/>
<feColorMatrix type="matrix" values="0 0 0 0 0.196487 0 0 0 0 0.196487 0 0 0 0 0.279476 0 0 0 0.06 0"/>
<feBlend mode="multiply" in2="BackgroundImageFix" result="effect1_dropShadow_1_753"/>
<feColorMatrix in="SourceAlpha" type="matrix" values="0 0 0 0 0 0 0 0 0 0 0 0 0 0 0 0 0 0 127 0" result="hardAlpha"/>
<feOffset dy="2.98065"/>
<feGaussianBlur stdDeviation="1.49032"/>
<feColorMatrix type="matrix" values="0 0 0 0 0.196487 0 0 0 0 0.196487 0 0 0 0 0.279476 0 0 0 0.06 0"/>
<feBlend mode="multiply" in2="effect1_dropShadow_1_753" result="effect2_dropShadow_1_753"/>
<feBlend mode="normal" in="SourceGraphic" in2="effect2_dropShadow_1_753" result="shape"/>
</filter>
</defs>
</svg>
