<svg width="309" height="415" viewBox="0 0 309 415" fill="none" xmlns="http://www.w3.org/2000/svg">
<g filter="url(#filter0_d_1_812)">
<rect x="61.4093" y="57.9668" width="186.32" height="224.4" rx="10.2" fill="white" shape-rendering="crispEdges"/>
<path d="M82.499 86.1769L82.499 85.0613L90.2881 85.0613L90.2881 86.1769L87.0223 86.1769L87.0223 95.4468L85.7647 95.4468L85.7647 86.1769L82.499 86.1769ZM94.1015 95.6091C93.3983 95.6091 92.7813 95.4417 92.2506 95.107C91.7232 94.7723 91.3107 94.3041 91.0132 93.7023C90.7191 93.1006 90.5721 92.3974 90.5721 91.5928C90.5721 90.7814 90.7191 90.0732 91.0132 89.468C91.3107 88.8629 91.7232 88.393 92.2506 88.0583C92.7813 87.7236 93.3983 87.5563 94.1015 87.5563C94.8047 87.5563 95.42 87.7236 95.9473 88.0583C96.4781 88.393 96.8905 88.8629 97.1847 89.468C97.4822 90.0732 97.6309 90.7814 97.6309 91.5928C97.6309 92.3974 97.4822 93.1006 97.1847 93.7023C96.8905 94.3041 96.4781 94.7723 95.9473 95.107C95.42 95.4417 94.8047 95.6091 94.1015 95.6091ZM94.1015 94.534C94.6356 94.534 95.0751 94.3971 95.42 94.1232C95.7648 93.8494 96.02 93.4894 96.1857 93.0431C96.3513 92.5969 96.4342 92.1134 96.4342 91.5928C96.4342 91.0722 96.3513 90.587 96.1857 90.1374C96.02 89.6878 95.7648 89.3244 95.42 89.0471C95.0751 88.7699 94.6356 88.6313 94.1015 88.6313C93.5673 88.6313 93.1278 88.7699 92.783 89.0471C92.4382 89.3244 92.1829 89.6878 92.0173 90.1374C91.8516 90.587 91.7688 91.0722 91.7688 91.5928C91.7688 92.1134 91.8516 92.5969 92.0173 93.0431C92.1829 93.4894 92.4382 93.8494 92.783 94.1232C93.1278 94.3971 93.5673 94.534 94.1015 94.534ZM102.845 87.6577L102.845 88.6719L98.8087 88.6719L98.8087 87.6577L102.845 87.6577ZM99.9851 85.7916L101.182 85.7916L101.182 93.2155C101.182 93.5536 101.231 93.8071 101.329 93.9762C101.43 94.1418 101.559 94.2534 101.714 94.3109C101.873 94.365 102.041 94.392 102.216 94.392C102.348 94.392 102.456 94.3852 102.541 94.3717C102.625 94.3548 102.693 94.3413 102.744 94.3312L102.987 95.4062C102.906 95.4366 102.793 95.4671 102.647 95.4975C102.502 95.5313 102.318 95.5482 102.095 95.5482C101.757 95.5482 101.425 95.4755 101.101 95.3301C100.78 95.1848 100.513 94.9633 100.3 94.6658C100.09 94.3683 99.9851 93.9931 99.9851 93.5401L99.9851 85.7916ZM106.938 95.6293C106.444 95.6293 105.996 95.5364 105.594 95.3504C105.191 95.1611 104.872 94.889 104.635 94.534C104.399 94.1756 104.28 93.7429 104.28 93.2358C104.28 92.7896 104.368 92.4278 104.544 92.1506C104.72 91.87 104.955 91.6503 105.249 91.4914C105.543 91.3325 105.868 91.2142 106.222 91.1364C106.581 91.0553 106.941 90.991 107.303 90.9437C107.776 90.8829 108.16 90.8372 108.454 90.8068C108.751 90.773 108.968 90.7172 109.103 90.6394C109.241 90.5617 109.311 90.4265 109.311 90.2338L109.311 90.1932C109.311 89.6929 109.174 89.3041 108.9 89.0269C108.63 88.7496 108.219 88.611 107.668 88.611C107.096 88.611 106.648 88.7361 106.324 88.9863C105.999 89.2365 105.771 89.5035 105.639 89.7875L104.503 89.3818C104.706 88.9085 104.977 88.54 105.315 88.2764C105.656 88.0093 106.028 87.8233 106.43 87.7185C106.836 87.6104 107.235 87.5563 107.627 87.5563C107.877 87.5563 108.165 87.5867 108.489 87.6475C108.817 87.705 109.133 87.825 109.438 88.0076C109.745 88.1901 110 88.4657 110.203 88.8342C110.406 89.2027 110.508 89.6962 110.508 90.3149L110.508 95.4468L109.311 95.4468L109.311 94.392L109.25 94.392C109.169 94.561 109.034 94.7419 108.844 94.9346C108.655 95.1273 108.403 95.2913 108.089 95.4265C107.774 95.5617 107.391 95.6293 106.938 95.6293ZM107.12 94.5543C107.593 94.5543 107.992 94.4613 108.317 94.2754C108.645 94.0894 108.892 93.8494 109.057 93.5553C109.226 93.2612 109.311 92.9518 109.311 92.6273L109.311 91.5319C109.26 91.5928 109.148 91.6486 108.976 91.6993C108.807 91.7466 108.611 91.7889 108.388 91.8261C108.168 91.8599 107.953 91.8903 107.744 91.9173C107.538 91.941 107.37 91.9613 107.242 91.9782C106.931 92.0188 106.64 92.0847 106.37 92.176C106.102 92.2639 105.886 92.3974 105.72 92.5766C105.558 92.7524 105.477 92.9924 105.477 93.2967C105.477 93.7125 105.631 94.0269 105.939 94.2399C106.25 94.4495 106.643 94.5543 107.12 94.5543ZM113.889 85.0613L113.889 95.4468L112.692 95.4468L112.692 85.0613L113.889 85.0613ZM123.261 95.6091C122.531 95.6091 121.902 95.4366 121.375 95.0918C120.847 94.747 120.442 94.272 120.158 93.6669C119.874 93.0617 119.732 92.3704 119.732 91.5928C119.732 90.8017 119.877 90.1036 120.168 89.4985C120.462 88.8899 120.871 88.415 121.395 88.0735C121.922 87.7287 122.538 87.5563 123.241 87.5563C123.789 87.5563 124.282 87.6577 124.722 87.8605C125.161 88.0634 125.521 88.3473 125.802 88.7125C126.082 89.0776 126.256 89.5035 126.324 89.9904L125.127 89.9904C125.036 89.6354 124.833 89.321 124.519 89.0471C124.208 88.7699 123.789 88.6313 123.261 88.6313C122.795 88.6313 122.386 88.753 122.034 88.9964C121.686 89.2365 121.414 89.5762 121.218 90.0157C121.025 90.4518 120.928 90.964 120.928 91.5522C120.928 92.154 121.023 92.678 121.212 93.1243C121.405 93.5705 121.676 93.917 122.024 94.1638C122.375 94.4106 122.788 94.534 123.261 94.534C123.572 94.534 123.854 94.4799 124.108 94.3717C124.362 94.2635 124.576 94.108 124.752 93.9052C124.928 93.7023 125.053 93.4589 125.127 93.175L126.324 93.175C126.256 93.6347 126.089 94.0489 125.822 94.4174C125.558 94.7825 125.208 95.0732 124.772 95.2896C124.34 95.5026 123.836 95.6091 123.261 95.6091ZM130.366 95.6293C129.872 95.6293 129.424 95.5364 129.022 95.3504C128.62 95.1611 128.3 94.889 128.063 94.534C127.827 94.1756 127.708 93.7429 127.708 93.2358C127.708 92.7896 127.796 92.4278 127.972 92.1506C128.148 91.87 128.383 91.6503 128.677 91.4914C128.971 91.3325 129.296 91.2142 129.651 91.1364C130.009 91.0553 130.369 90.991 130.731 90.9437C131.204 90.8829 131.588 90.8372 131.882 90.8068C132.179 90.773 132.396 90.7172 132.531 90.6395C132.67 90.5617 132.739 90.4265 132.739 90.2338L132.739 90.1932C132.739 89.6929 132.602 89.3041 132.328 89.0269C132.058 88.7496 131.647 88.611 131.096 88.611C130.525 88.611 130.077 88.7361 129.752 88.9863C129.427 89.2365 129.199 89.5035 129.067 89.7875L127.932 89.3818C128.134 88.9085 128.405 88.54 128.743 88.2764C129.084 88.0093 129.456 87.8233 129.859 87.7185C130.264 87.6104 130.663 87.5563 131.055 87.5563C131.305 87.5563 131.593 87.5867 131.917 87.6475C132.245 87.705 132.561 87.825 132.866 88.0076C133.173 88.1901 133.429 88.4657 133.631 88.8342C133.834 89.2027 133.936 89.6962 133.936 90.3149L133.936 95.4468L132.739 95.4468L132.739 94.392L132.678 94.392C132.597 94.561 132.462 94.7419 132.272 94.9346C132.083 95.1273 131.831 95.2913 131.517 95.4265C131.202 95.5617 130.819 95.6293 130.366 95.6293ZM130.548 94.5543C131.021 94.5543 131.42 94.4613 131.745 94.2754C132.073 94.0894 132.32 93.8494 132.485 93.5553C132.654 93.2612 132.739 92.9518 132.739 92.6273L132.739 91.532C132.688 91.5928 132.577 91.6486 132.404 91.6993C132.235 91.7466 132.039 91.7889 131.816 91.8261C131.596 91.8599 131.382 91.8903 131.172 91.9173C130.966 91.941 130.798 91.9613 130.67 91.9782C130.359 92.0188 130.068 92.0847 129.798 92.176C129.531 92.2639 129.314 92.3974 129.149 92.5766C128.986 92.7524 128.905 92.9924 128.905 93.2967C128.905 93.7125 129.059 94.0269 129.367 94.2399C129.678 94.4495 130.072 94.5543 130.548 94.5543ZM141.637 89.4021L140.562 89.7064C140.495 89.5272 140.395 89.3531 140.263 89.1841C140.135 89.0117 139.959 88.8697 139.736 88.7581C139.512 88.6465 139.227 88.5908 138.879 88.5908C138.402 88.5908 138.005 88.7006 137.687 88.9204C137.373 89.1367 137.215 89.4123 137.215 89.747C137.215 90.0445 137.324 90.2794 137.54 90.4518C137.756 90.6242 138.094 90.7679 138.554 90.8829L139.71 91.1668C140.407 91.3359 140.926 91.5945 141.267 91.9427C141.609 92.2875 141.779 92.7321 141.779 93.2764C141.779 93.7226 141.651 94.1216 141.394 94.4731C141.14 94.8247 140.785 95.102 140.329 95.3048C139.873 95.5076 139.342 95.6091 138.737 95.6091C137.942 95.6091 137.285 95.4366 136.764 95.0918C136.243 94.747 135.914 94.2433 135.775 93.5806L136.911 93.2967C137.019 93.7159 137.224 94.0303 137.525 94.2399C137.829 94.4495 138.226 94.5543 138.716 94.5543C139.274 94.5543 139.717 94.436 140.045 94.1993C140.376 93.9593 140.542 93.6719 140.542 93.3372C140.542 93.0668 140.447 92.8403 140.258 92.6577C140.069 92.4718 139.778 92.3332 139.386 92.2419L138.088 91.9376C137.374 91.7686 136.85 91.5066 136.516 91.1516C136.184 90.7933 136.019 90.3453 136.019 89.8078C136.019 89.3683 136.142 88.9795 136.389 88.6415C136.639 88.3034 136.979 88.038 137.408 87.8453C137.841 87.6526 138.331 87.5563 138.879 87.5563C139.649 87.5563 140.255 87.7253 140.694 88.0634C141.137 88.4014 141.451 88.8477 141.637 89.4021ZM144.777 90.7612L144.777 95.4468L143.581 95.4468L143.581 85.0613L144.777 85.0613L144.777 88.8747L144.879 88.8747C145.061 88.4724 145.335 88.153 145.7 87.9163C146.069 87.6763 146.559 87.5563 147.171 87.5563C147.702 87.5563 148.167 87.6628 148.566 87.8757C148.964 88.0853 149.274 88.4082 149.494 88.8443C149.717 89.277 149.828 89.8281 149.828 90.4975L149.828 95.4468L148.631 95.4468L148.631 90.5786C148.631 89.9599 148.471 89.4816 148.15 89.1435C147.832 88.8021 147.391 88.6313 146.826 88.6313C146.434 88.6313 146.082 88.7142 145.771 88.8798C145.464 89.0455 145.22 89.2872 145.041 89.605C144.865 89.9227 144.777 90.3081 144.777 90.7612ZM152.18 95.4468L152.18 85.0613L153.377 85.0613L153.377 88.895L153.478 88.895C153.566 88.7598 153.688 88.5874 153.843 88.3778C154.002 88.1648 154.229 87.9755 154.523 87.8098C154.82 87.6408 155.223 87.5563 155.73 87.5563C156.385 87.5563 156.964 87.7202 157.464 88.0482C157.964 88.3761 158.355 88.8409 158.635 89.4427C158.916 90.0445 159.056 90.7544 159.056 91.5725C159.056 92.3974 158.916 93.1124 158.635 93.7176C158.355 94.3193 157.966 94.7859 157.469 95.1172C156.972 95.4451 156.399 95.6091 155.75 95.6091C155.25 95.6091 154.849 95.5262 154.548 95.3606C154.247 95.1915 154.016 95.0005 153.853 94.7875C153.691 94.5712 153.566 94.392 153.478 94.25L153.336 94.25L153.336 95.4468L152.18 95.4468ZM153.356 91.5522C153.356 92.1405 153.443 92.6594 153.615 93.109C153.787 93.5553 154.039 93.9052 154.371 94.1587C154.702 94.4089 155.108 94.534 155.588 94.534C156.088 94.534 156.505 94.4022 156.84 94.1385C157.178 93.8714 157.432 93.513 157.601 93.0634C157.773 92.6104 157.859 92.1067 157.859 91.5522C157.859 91.0046 157.775 90.511 157.606 90.0715C157.44 89.6286 157.188 89.2787 156.85 89.0218C156.516 88.7615 156.095 88.6313 155.588 88.6313C155.101 88.6313 154.692 88.7547 154.36 89.0015C154.029 89.2449 153.779 89.5864 153.61 90.0259C153.441 90.462 153.356 90.9708 153.356 91.5522ZM163.179 95.6293C162.685 95.6293 162.237 95.5364 161.835 95.3504C161.433 95.1611 161.113 94.889 160.877 94.534C160.64 94.1756 160.522 93.7429 160.522 93.2358C160.522 92.7896 160.61 92.4278 160.785 92.1506C160.961 91.87 161.196 91.6503 161.49 91.4914C161.784 91.3325 162.109 91.2142 162.464 91.1364C162.822 91.0553 163.182 90.991 163.544 90.9437C164.017 90.8829 164.401 90.8372 164.695 90.8068C164.993 90.773 165.209 90.7172 165.344 90.6395C165.483 90.5617 165.552 90.4265 165.552 90.2338L165.552 90.1932C165.552 89.6929 165.415 89.3041 165.141 89.0269C164.871 88.7497 164.46 88.611 163.909 88.611C163.338 88.611 162.89 88.7361 162.565 88.9863C162.241 89.2365 162.013 89.5035 161.881 89.7875L160.745 89.3818C160.948 88.9085 161.218 88.54 161.556 88.2764C161.898 88.0093 162.27 87.8233 162.672 87.7185C163.078 87.6104 163.476 87.5563 163.869 87.5563C164.119 87.5563 164.406 87.5867 164.731 87.6475C165.059 87.705 165.375 87.825 165.679 88.0076C165.987 88.1901 166.242 88.4657 166.445 88.8342C166.648 89.2027 166.749 89.6962 166.749 90.3149L166.749 95.4468L165.552 95.4468L165.552 94.392L165.491 94.392C165.41 94.561 165.275 94.7419 165.086 94.9346C164.896 95.1273 164.644 95.2913 164.33 95.4265C164.016 95.5617 163.632 95.6293 163.179 95.6293ZM163.362 94.5543C163.835 94.5543 164.234 94.4613 164.558 94.2754C164.886 94.0894 165.133 93.8494 165.299 93.5553C165.468 93.2612 165.552 92.9518 165.552 92.6273L165.552 91.532C165.501 91.5928 165.39 91.6486 165.218 91.6993C165.048 91.7466 164.852 91.7889 164.629 91.8261C164.41 91.8599 164.195 91.8903 163.985 91.9173C163.779 91.941 163.612 91.9613 163.483 91.9782C163.172 92.0188 162.881 92.0847 162.611 92.176C162.344 92.2639 162.128 92.3974 161.962 92.5766C161.8 92.7524 161.719 92.9924 161.719 93.2967C161.719 93.7125 161.872 94.0269 162.18 94.2399C162.491 94.4495 162.885 94.5543 163.362 94.5543ZM172.098 95.6091C171.367 95.6091 170.739 95.4366 170.211 95.0918C169.684 94.747 169.278 94.272 168.994 93.6669C168.71 93.0617 168.568 92.3704 168.568 91.5928C168.568 90.8017 168.714 90.1036 169.004 89.4985C169.298 88.8899 169.707 88.415 170.231 88.0735C170.759 87.7287 171.374 87.5563 172.077 87.5563C172.625 87.5563 173.119 87.6577 173.558 87.8605C173.998 88.0634 174.358 88.3474 174.638 88.7125C174.919 89.0776 175.093 89.5035 175.161 89.9904L173.964 89.9904C173.872 89.6354 173.67 89.321 173.355 89.0472C173.044 88.7699 172.625 88.6313 172.098 88.6313C171.631 88.6313 171.222 88.753 170.87 88.9964C170.522 89.2365 170.25 89.5762 170.054 90.0157C169.861 90.4518 169.765 90.964 169.765 91.5522C169.765 92.154 169.86 92.678 170.049 93.1243C170.242 93.5705 170.512 93.917 170.86 94.1638C171.212 94.4106 171.624 94.534 172.098 94.534C172.409 94.534 172.691 94.4799 172.944 94.3717C173.198 94.2635 173.413 94.108 173.588 93.9052C173.764 93.7024 173.889 93.4589 173.964 93.175L175.161 93.175C175.093 93.6347 174.926 94.0489 174.658 94.4174C174.395 94.7825 174.045 95.0732 173.609 95.2896C173.176 95.5026 172.672 95.6091 172.098 95.6091ZM178.026 92.607L178.005 91.1263L178.249 91.1263L181.656 87.6577L183.137 87.6577L179.506 91.3291L179.405 91.3291L178.026 92.607ZM176.91 95.4468L176.91 85.0613L178.107 85.0613L178.107 95.4468L176.91 95.4468ZM181.859 95.4468L178.817 91.5928L179.669 90.7612L183.381 95.4468L181.859 95.4468Z" fill="#2E2E3A"/>
<path d="M87.909 132.581L87.909 114.036L89.0971 114.036L89.0971 132.581L87.909 132.581ZM91.3356 119.969C91.268 119.336 90.983 118.844 90.4808 118.491C89.9833 118.139 89.3362 117.962 88.5393 117.962C87.9791 117.962 87.4985 118.047 87.0977 118.216C86.6968 118.385 86.3902 118.614 86.1777 118.904C85.9652 119.194 85.8565 119.525 85.8517 119.897C85.8517 120.206 85.9217 120.474 86.0617 120.701C86.2066 120.928 86.4022 121.121 86.6485 121.28C86.8948 121.435 87.1677 121.565 87.4671 121.671C87.7666 121.778 88.0684 121.867 88.3727 121.939L89.7636 122.287C90.3238 122.418 90.8623 122.594 91.3791 122.816C91.9007 123.038 92.3667 123.318 92.7772 123.656C93.1926 123.994 93.521 124.403 93.7625 124.881C94.0039 125.359 94.1247 125.919 94.1247 126.561C94.1247 127.431 93.9025 128.196 93.4582 128.858C93.0139 129.515 92.3715 130.029 91.5312 130.401C90.6957 130.768 89.6839 130.951 88.4958 130.951C87.3416 130.951 86.3394 130.773 85.4894 130.415C84.6443 130.058 83.9826 129.536 83.5045 128.851C83.0312 128.165 82.7752 127.329 82.7366 126.344L85.3808 126.344C85.4194 126.861 85.5788 127.291 85.8589 127.633C86.139 127.976 86.5036 128.232 86.9528 128.401C87.4068 128.57 87.9139 128.655 88.4741 128.655C89.0585 128.655 89.5704 128.568 90.0099 128.394C90.4542 128.215 90.8019 127.969 91.0531 127.655C91.3042 127.336 91.4322 126.965 91.437 126.54C91.4322 126.153 91.3187 125.834 91.0965 125.583C90.8744 125.327 90.5629 125.115 90.162 124.946C89.766 124.772 89.3024 124.617 88.7711 124.482L87.0832 124.048C85.8613 123.734 84.8954 123.258 84.1855 122.62C83.4803 121.978 83.1278 121.126 83.1278 120.063C83.1278 119.189 83.3644 118.424 83.8377 117.767C84.3159 117.11 84.9654 116.6 85.7865 116.238C86.6075 115.871 87.5372 115.688 88.5755 115.688C89.6284 115.688 90.5508 115.871 91.3428 116.238C92.1397 116.6 92.7652 117.105 93.2191 117.752C93.6731 118.395 93.9073 119.133 93.9218 119.969L91.3356 119.969ZM102.41 115.89L102.41 130.727L99.7227 130.727L99.7227 118.506L99.6358 118.506L96.1658 120.722L96.1658 118.259L99.8531 115.89L102.41 115.89ZM108.468 128.698L108.374 129.495C108.307 130.104 108.186 130.722 108.012 131.35C107.843 131.982 107.664 132.564 107.476 133.096C107.288 133.627 107.135 134.045 107.02 134.349L105.252 134.349C105.32 134.054 105.411 133.654 105.527 133.146C105.648 132.639 105.764 132.069 105.875 131.437C105.986 130.804 106.061 130.162 106.1 129.51L106.15 128.698L108.468 128.698ZM116.356 130.93C115.39 130.93 114.525 130.749 113.762 130.386C112.999 130.019 112.393 129.517 111.944 128.88C111.5 128.242 111.263 127.513 111.234 126.692L113.842 126.692C113.89 127.3 114.153 127.798 114.632 128.184C115.11 128.566 115.684 128.756 116.356 128.756C116.882 128.756 117.351 128.636 117.761 128.394C118.172 128.153 118.495 127.817 118.732 127.387C118.968 126.957 119.084 126.467 119.08 125.917C119.084 125.356 118.966 124.859 118.725 124.424C118.483 123.99 118.152 123.649 117.732 123.403C117.312 123.152 116.829 123.026 116.283 123.026C115.839 123.021 115.402 123.103 114.972 123.272C114.542 123.441 114.202 123.664 113.951 123.939L111.524 123.54L112.299 115.89L120.905 115.89L120.905 118.136L114.523 118.136L114.095 122.07L114.182 122.07C114.458 121.746 114.846 121.478 115.349 121.266C115.851 121.048 116.402 120.94 117 120.94C117.899 120.94 118.7 121.152 119.406 121.577C120.111 121.997 120.666 122.577 121.072 123.316C121.477 124.055 121.68 124.9 121.68 125.851C121.68 126.832 121.453 127.706 120.999 128.474C120.55 129.237 119.925 129.838 119.123 130.278C118.326 130.712 117.404 130.93 116.356 130.93ZM129.432 130.93C128.388 130.93 127.461 130.751 126.65 130.394C125.843 130.036 125.206 129.539 124.737 128.901C124.269 128.264 124.02 127.527 123.991 126.692L126.715 126.692C126.739 127.093 126.872 127.443 127.113 127.742C127.355 128.037 127.676 128.266 128.077 128.43C128.478 128.595 128.927 128.677 129.424 128.677C129.956 128.677 130.427 128.585 130.837 128.401C131.248 128.213 131.569 127.952 131.801 127.619C132.032 127.286 132.146 126.902 132.141 126.467C132.146 126.018 132.03 125.622 131.793 125.279C131.557 124.936 131.214 124.668 130.765 124.475C130.32 124.282 129.784 124.185 129.156 124.185L127.845 124.185L127.845 122.113L129.156 122.113C129.673 122.113 130.125 122.024 130.511 121.845C130.902 121.667 131.209 121.415 131.431 121.092C131.653 120.763 131.762 120.384 131.757 119.955C131.762 119.534 131.668 119.17 131.475 118.861C131.286 118.547 131.018 118.303 130.67 118.129C130.328 117.955 129.924 117.868 129.461 117.868C129.007 117.868 128.586 117.95 128.2 118.114C127.814 118.279 127.502 118.513 127.266 118.817C127.029 119.117 126.903 119.474 126.889 119.889L124.303 119.889C124.322 119.059 124.561 118.329 125.02 117.702C125.484 117.069 126.102 116.576 126.874 116.224C127.647 115.866 128.514 115.688 129.475 115.688C130.465 115.688 131.325 115.874 132.054 116.245C132.788 116.612 133.356 117.107 133.757 117.731C134.157 118.354 134.358 119.042 134.358 119.795C134.363 120.631 134.116 121.331 133.619 121.896C133.126 122.461 132.479 122.831 131.677 123.004L131.677 123.12C132.721 123.265 133.52 123.652 134.075 124.279C134.635 124.902 134.913 125.678 134.908 126.605C134.908 127.435 134.672 128.179 134.198 128.836C133.73 129.488 133.083 130 132.257 130.372C131.436 130.744 130.494 130.93 129.432 130.93ZM143.429 115.89L143.429 130.727L140.742 130.727L140.742 118.506L140.655 118.506L137.185 120.722L137.185 118.259L140.872 115.89L143.429 115.89Z" fill="#2E2E3A"/>
<path d="M85.8154 153.244L85.8154 146.225L87.4077 146.225L87.4077 153.244L85.8154 153.244ZM83.1024 150.531L83.1024 148.938L90.1207 148.938L90.1207 150.531L83.1024 150.531ZM95.9511 155.049C95.275 155.049 94.6699 154.922 94.1357 154.669C93.6016 154.412 93.1773 154.06 92.8629 153.614C92.5519 153.168 92.3862 152.657 92.3659 152.082L94.1915 152.082C94.2253 152.508 94.4096 152.856 94.7442 153.127C95.0789 153.394 95.4812 153.528 95.9511 153.528C96.3196 153.528 96.6476 153.443 96.9349 153.274C97.2223 153.105 97.4488 152.87 97.6144 152.569C97.7801 152.268 97.8612 151.925 97.8578 151.54C97.8612 151.148 97.7784 150.799 97.6094 150.495C97.4403 150.191 97.2088 149.952 96.9146 149.78C96.6205 149.604 96.2824 149.516 95.9004 149.516C95.5894 149.513 95.2835 149.57 94.9826 149.689C94.6817 149.807 94.4434 149.963 94.2676 150.155L92.5688 149.876L93.1114 144.521L99.1357 144.521L99.1357 146.093L94.6682 146.093L94.369 148.847L94.4298 148.847C94.6225 148.62 94.8947 148.433 95.2463 148.284C95.5979 148.132 95.9833 148.056 96.4025 148.056C97.0313 148.056 97.5925 148.205 98.086 148.502C98.5796 148.796 98.9684 149.202 99.2524 149.719C99.5364 150.236 99.6783 150.828 99.6783 151.494C99.6783 152.18 99.5195 152.792 99.2017 153.33C98.8873 153.864 98.4495 154.285 97.8883 154.592C97.3305 154.897 96.6847 155.049 95.9511 155.049ZM102.18 155.018C101.872 155.018 101.608 154.91 101.389 154.694C101.169 154.478 101.061 154.214 101.064 153.903C101.061 153.599 101.169 153.338 101.389 153.122C101.608 152.905 101.872 152.797 102.18 152.797C102.477 152.797 102.736 152.905 102.955 153.122C103.179 153.338 103.292 153.599 103.295 153.903C103.292 154.109 103.238 154.297 103.133 154.466C103.032 154.635 102.896 154.77 102.727 154.871C102.562 154.969 102.379 155.018 102.18 155.018ZM104.983 152.98L104.983 151.484L109.389 144.521L110.637 144.521L110.637 146.651L109.876 146.651L106.91 151.352L106.91 151.433L113.061 151.433L113.061 152.98L104.983 152.98ZM109.937 154.907L109.937 152.523L109.957 151.854L109.957 144.521L111.732 144.521L111.732 154.907L109.937 154.907ZM120.234 152.96L120.234 152.412C120.234 152.01 120.318 151.639 120.487 151.301C120.66 150.963 120.91 150.691 121.238 150.485C121.566 150.279 121.963 150.176 122.429 150.176C122.91 150.176 123.312 150.279 123.636 150.485C123.961 150.688 124.206 150.958 124.372 151.296C124.541 151.634 124.625 152.006 124.625 152.412L124.625 152.96C124.625 153.362 124.541 153.732 124.372 154.07C124.203 154.408 123.954 154.68 123.626 154.887C123.302 155.093 122.903 155.196 122.429 155.196C121.956 155.196 121.556 155.093 121.228 154.887C120.9 154.68 120.651 154.408 120.482 154.07C120.317 153.732 120.234 153.362 120.234 152.96ZM121.557 152.412L121.557 152.96C121.557 153.227 121.622 153.472 121.75 153.695C121.878 153.918 122.105 154.03 122.429 154.03C122.757 154.03 122.982 153.92 123.104 153.7C123.229 153.477 123.292 153.23 123.292 152.96L123.292 152.412C123.292 152.141 123.232 151.895 123.114 151.672C122.996 151.445 122.768 151.332 122.429 151.332C122.112 151.332 121.887 151.445 121.755 151.672C121.623 151.895 121.557 152.141 121.557 152.412ZM114.955 147.016L114.955 146.469C114.955 146.063 115.041 145.691 115.213 145.353C115.386 145.015 115.636 144.745 115.964 144.542C116.292 144.335 116.689 144.232 117.156 144.232C117.632 144.232 118.033 144.335 118.357 144.542C118.685 144.745 118.932 145.015 119.098 145.353C119.263 145.691 119.346 146.063 119.346 146.469L119.346 147.016C119.346 147.422 119.262 147.794 119.093 148.132C118.927 148.467 118.68 148.735 118.352 148.938C118.024 149.141 117.626 149.243 117.156 149.243C116.679 149.243 116.277 149.141 115.949 148.938C115.624 148.735 115.377 148.465 115.208 148.127C115.039 147.789 114.955 147.419 114.955 147.016ZM116.288 146.469L116.288 147.016C116.288 147.287 116.351 147.534 116.476 147.757C116.605 147.976 116.831 148.086 117.156 148.086C117.48 148.086 117.703 147.976 117.825 147.757C117.95 147.534 118.013 147.287 118.013 147.016L118.013 146.469C118.013 146.198 117.953 145.951 117.835 145.728C117.717 145.502 117.49 145.389 117.156 145.389C116.834 145.389 116.61 145.502 116.481 145.728C116.353 145.955 116.288 146.202 116.288 146.469ZM115.533 154.907L122.673 144.521L123.941 144.521L116.801 154.907L115.533 154.907Z" fill="#24CA49"/>
<circle cx="151.169" cy="215.007" r="16.32" fill="#C2B7CD"/>
<g clip-path="url(#clip0_1_812)">
<path d="M157.969 216.027L157.969 221.127C157.969 221.307 157.898 221.48 157.77 221.608C157.643 221.735 157.47 221.807 157.289 221.807L156.609 221.807C156.429 221.807 156.256 221.735 156.128 221.608C156.001 221.48 155.929 221.307 155.929 221.127L155.929 220.447L146.409 220.447L146.409 221.127C146.409 221.307 146.338 221.48 146.21 221.608C146.083 221.735 145.91 221.807 145.729 221.807L145.049 221.807C144.869 221.807 144.696 221.735 144.568 221.608C144.441 221.48 144.369 221.307 144.369 221.127L144.369 216.027L143.524 215.816C143.377 215.779 143.246 215.694 143.153 215.575C143.06 215.455 143.009 215.308 143.009 215.156L143.009 214.667C143.009 214.577 143.045 214.49 143.109 214.426C143.173 214.363 143.259 214.327 143.349 214.327L144.624 214.327L146.078 210.449C146.175 210.19 146.349 209.967 146.577 209.809C146.805 209.651 147.075 209.567 147.352 209.567L154.987 209.567C155.264 209.567 155.534 209.651 155.762 209.809C155.989 209.967 156.163 210.19 156.26 210.449L157.714 214.327L158.989 214.327C159.079 214.327 159.166 214.363 159.23 214.426C159.293 214.49 159.329 214.577 159.329 214.667L159.329 215.156C159.329 215.308 159.279 215.455 159.185 215.575C159.092 215.694 158.962 215.779 158.815 215.816L157.969 216.027ZM145.729 217.047L145.729 218.407C145.729 218.587 145.801 218.76 145.928 218.888C146.056 219.015 146.229 219.087 146.409 219.087L148.616 219.087C148.675 219.087 148.732 219.071 148.783 219.042C148.834 219.013 148.877 218.972 148.907 218.921C148.937 218.871 148.954 218.814 148.955 218.755C148.957 218.696 148.943 218.638 148.915 218.586C148.368 217.559 147.306 217.047 145.729 217.047ZM156.609 217.047C155.034 217.047 153.972 217.56 153.423 218.586C153.395 218.638 153.381 218.696 153.383 218.755C153.384 218.814 153.401 218.871 153.431 218.922C153.461 218.972 153.504 219.014 153.555 219.043C153.606 219.072 153.664 219.087 153.723 219.087L155.929 219.087C156.11 219.087 156.283 219.015 156.41 218.888C156.538 218.76 156.609 218.587 156.609 218.407L156.609 217.047ZM147.089 210.927L146.028 214.112C145.994 214.214 145.984 214.323 146.001 214.429C146.017 214.536 146.058 214.637 146.121 214.724C146.184 214.812 146.267 214.883 146.363 214.932C146.459 214.981 146.565 215.007 146.672 215.007L155.666 215.007C155.774 215.007 155.88 214.981 155.976 214.932C156.072 214.883 156.154 214.812 156.217 214.724C156.28 214.637 156.322 214.536 156.338 214.429C156.354 214.323 156.345 214.214 156.311 214.112L155.249 210.927L147.089 210.927Z" fill="white"/>
</g>
<circle cx="124.649" cy="215.007" r="16.32" fill="#FD4438"/>
<g clip-path="url(#clip1_1_812)">
<path d="M130.089 220.447C130.089 220.627 130.018 220.8 129.89 220.928C129.763 221.055 129.59 221.127 129.409 221.127L119.889 221.127C119.709 221.127 119.536 221.055 119.408 220.928C119.281 220.8 119.209 220.627 119.209 220.447L119.209 214.327L117.169 214.327L124.192 207.943C124.317 207.829 124.48 207.766 124.649 207.766C124.819 207.766 124.982 207.829 125.107 207.943L132.129 214.327L130.089 214.327L130.089 220.447ZM123.969 215.687L123.969 219.767L125.329 219.767L125.329 215.687L123.969 215.687Z" fill="white"/>
</g>
<g filter="url(#filter1_dddddd_1_812)">
<circle cx="98.1293" cy="215.007" r="16.32" fill="#0062FF"/>
</g>
<path d="M101.529 209.567C102.611 209.567 103.649 209.997 104.414 210.762C105.179 211.527 105.609 212.565 105.609 213.647L105.609 216.367C105.609 217.449 105.179 218.487 104.414 219.252C103.649 220.017 102.611 220.447 101.529 220.447L94.7293 220.447C93.6472 220.447 92.6094 220.017 91.8443 219.252C91.0791 218.487 90.6493 217.449 90.6493 216.367L90.6493 213.647C90.6493 212.565 91.0791 211.527 91.8443 210.762C92.6094 209.997 93.6472 209.567 94.7293 209.567L101.529 209.567ZM96.7693 212.967L95.4093 212.967L95.4093 214.327L94.0493 214.327L94.0493 215.687L95.4086 215.687L95.4093 217.047L96.7693 217.047L96.7686 215.687L98.1293 215.687L98.1293 214.327L96.7693 214.327L96.7693 212.967ZM102.209 215.687L100.849 215.687L100.849 217.047L102.209 217.047L102.209 215.687ZM100.849 212.967L99.4893 212.967L99.4893 214.327L100.849 214.327L100.849 212.967Z" fill="white"/>
<rect x="227.649" y="246.627" width="6.12" height="145.84" rx="3.06" transform="rotate(90 227.649 246.627)" fill="#E2E2EA"/>
<rect x="193.989" y="246.627" width="6.12" height="112.18" rx="3.06" transform="rotate(90 193.989 246.627)" fill="#A162F7"/>
</g>
<defs>
<filter id="filter0_d_1_812" x="0.209305" y="0.8468" width="308.72" height="346.8" filterUnits="userSpaceOnUse" color-interpolation-filters="sRGB">
<feFlood flood-opacity="0" result="BackgroundImageFix"/>
<feColorMatrix in="SourceAlpha" type="matrix" values="0 0 0 0 0 0 0 0 0 0 0 0 0 0 0 0 0 0 127 0" result="hardAlpha"/>
<feOffset dy="4.08"/>
<feGaussianBlur stdDeviation="30.6"/>
<feComposite in2="hardAlpha" operator="out"/>
<feColorMatrix type="matrix" values="0 0 0 0 0 0 0 0 0 0 0 0 0 0 0 0 0 0 0.08 0"/>
<feBlend mode="normal" in2="BackgroundImageFix" result="effect1_dropShadow_1_812"/>
<feBlend mode="normal" in="SourceGraphic" in2="effect1_dropShadow_1_812" result="shape"/>
</filter>
<filter id="filter1_dddddd_1_812" x="0.209328" y="198.687" width="195.84" height="216.24" filterUnits="userSpaceOnUse" color-interpolation-filters="sRGB">
<feFlood flood-opacity="0" result="BackgroundImageFix"/>
<feColorMatrix in="SourceAlpha" type="matrix" values="0 0 0 0 0 0 0 0 0 0 0 0 0 0 0 0 0 0 127 0" result="hardAlpha"/>
<feOffset dy="2.8226"/>
<feGaussianBlur stdDeviation="1.12904"/>
<feColorMatrix type="matrix" values="0 0 0 0 0 0 0 0 0 0.164706 0 0 0 0 1 0 0 0 0.0281146 0"/>
<feBlend mode="normal" in2="BackgroundImageFix" result="effect1_dropShadow_1_812"/>
<feColorMatrix in="SourceAlpha" type="matrix" values="0 0 0 0 0 0 0 0 0 0 0 0 0 0 0 0 0 0 127 0" result="hardAlpha"/>
<feOffset dy="6.7831"/>
<feGaussianBlur stdDeviation="2.71324"/>
<feColorMatrix type="matrix" values="0 0 0 0 0 0 0 0 0 0.164706 0 0 0 0 1 0 0 0 0.0403893 0"/>
<feBlend mode="normal" in2="effect1_dropShadow_1_812" result="effect2_dropShadow_1_812"/>
<feColorMatrix in="SourceAlpha" type="matrix" values="0 0 0 0 0 0 0 0 0 0 0 0 0 0 0 0 0 0 127 0" result="hardAlpha"/>
<feOffset dy="12.772"/>
<feGaussianBlur stdDeviation="5.10879"/>
<feColorMatrix type="matrix" values="0 0 0 0 0 0 0 0 0 0.164706 0 0 0 0 1 0 0 0 0.05 0"/>
<feBlend mode="normal" in2="effect2_dropShadow_1_812" result="effect3_dropShadow_1_812"/>
<feColorMatrix in="SourceAlpha" type="matrix" values="0 0 0 0 0 0 0 0 0 0 0 0 0 0 0 0 0 0 127 0" result="hardAlpha"/>
<feOffset dy="22.783"/>
<feGaussianBlur stdDeviation="9.11321"/>
<feColorMatrix type="matrix" values="0 0 0 0 0 0 0 0 0 0.164706 0 0 0 0 1 0 0 0 0.0596107 0"/>
<feBlend mode="normal" in2="effect3_dropShadow_1_812" result="effect4_dropShadow_1_812"/>
<feColorMatrix in="SourceAlpha" type="matrix" values="0 0 0 0 0 0 0 0 0 0 0 0 0 0 0 0 0 0 127 0" result="hardAlpha"/>
<feOffset dy="42.6132"/>
<feGaussianBlur stdDeviation="17.0453"/>
<feColorMatrix type="matrix" values="0 0 0 0 0 0 0 0 0 0.164706 0 0 0 0 1 0 0 0 0.0718854 0"/>
<feBlend mode="normal" in2="effect4_dropShadow_1_812" result="effect5_dropShadow_1_812"/>
<feColorMatrix in="SourceAlpha" type="matrix" values="0 0 0 0 0 0 0 0 0 0 0 0 0 0 0 0 0 0 127 0" result="hardAlpha"/>
<feOffset dy="102"/>
<feGaussianBlur stdDeviation="40.8"/>
<feColorMatrix type="matrix" values="0 0 0 0 0 0 0 0 0 0.164706 0 0 0 0 1 0 0 0 0.1 0"/>
<feBlend mode="normal" in2="effect5_dropShadow_1_812" result="effect6_dropShadow_1_812"/>
<feBlend mode="normal" in="SourceGraphic" in2="effect6_dropShadow_1_812" result="shape"/>
</filter>
<clipPath id="clip0_1_812">
<rect width="16.32" height="16.32" fill="white" transform="translate(143.009 206.847)"/>
</clipPath>
<clipPath id="clip1_1_812">
<rect width="16.32" height="16.32" fill="white" transform="translate(116.489 206.847)"/>
</clipPath>
</defs>
</svg>
