<svg width="73" height="73" viewBox="0 0 73 73" fill="none" xmlns="http://www.w3.org/2000/svg">
<circle cx="36.5" cy="36.7671" r="36" fill="#FABB18"/>
<path d="M20.4999 36.7668C20.4999 31.1068 20.4999 28.2768 22.1844 26.3874C22.4538 26.0852 22.7507 25.8058 23.0718 25.5522C25.0793 23.9668 28.0862 23.9668 34.0999 23.9668L38.8999 23.9668C44.9136 23.9668 47.9205 23.9668 49.9279 25.5522C50.249 25.8058 50.546 26.0852 50.8154 26.3874C52.4999 28.2768 52.4999 31.1068 52.4999 36.7668C52.4999 42.4268 52.4999 45.2567 50.8154 47.1462C50.546 47.4484 50.249 47.7278 49.9279 47.9814C47.9205 49.5668 44.9136 49.5668 38.8999 49.5668L34.0999 49.5668C28.0862 49.5668 25.0793 49.5668 23.0718 47.9814C22.7507 47.7278 22.4538 47.4484 22.1844 47.1462C20.4999 45.2567 20.4999 42.4268 20.4999 36.7668Z" stroke="white" stroke-width="2.4" stroke-linecap="round" stroke-linejoin="round"/>
<path d="M33.3 43.167L35.7 43.167" stroke="white" stroke-width="2.4" stroke-miterlimit="10" stroke-linecap="round" stroke-linejoin="round"/>
<path d="M40.5001 43.167L46.1001 43.167" stroke="white" stroke-width="2.4" stroke-miterlimit="10" stroke-linecap="round" stroke-linejoin="round"/>
<path d="M20.4999 31.967L52.4999 31.967" stroke="white" stroke-width="2.4" stroke-linejoin="round"/>
</svg>
