<svg width="73" height="73" viewBox="0 0 73 73" fill="none" xmlns="http://www.w3.org/2000/svg">
<circle cx="36.1" cy="36.3672" r="36" fill="#F23936"/>
<path d="M41.1807 52.3672L41.1807 50.7859L41.1807 50.7525C41.1889 49.8803 41.9039 49.1753 42.7882 49.1672L42.9082 49.167C45.1988 49.1488 47.1666 47.5579 47.634 45.3464L47.651 45.2634L48.4817 41.1672L49.9878 40.4246C50.7938 40.0272 51.1967 39.8285 51.2839 39.4642C51.3711 39.0998 51.1009 38.7443 50.5602 38.0334L47.5082 34.0205C47.2046 33.6211 47.0527 33.4214 46.9713 33.2102C46.89 32.999 46.8649 32.6996 46.815 32.1008C46.2654 25.5305 40.6839 20.3672 33.8798 20.3672C26.7113 20.3672 20.9001 26.0979 20.9001 33.1672C20.9001 37.5667 23.1508 41.4477 26.5787 43.7517M26.5787 43.7517L26.5787 52.3672M26.5787 43.7517C27.5704 44.4182 28.6607 44.9528 29.8236 45.3297" stroke="white" stroke-width="2.4" stroke-linecap="round" stroke-linejoin="round"/>
<path d="M39.3 31.5669L40.7719 32.8355C41.3906 33.3688 41.7 33.6355 41.7 33.9669C41.7 34.2983 41.3906 34.565 40.7719 35.0983L39.3 36.3669" stroke="white" stroke-width="2.4" stroke-linecap="round" stroke-linejoin="round"/>
<path d="M28.1001 31.5669L26.6282 32.8355C26.0095 33.3688 25.7001 33.6355 25.7001 33.9669C25.7001 34.2983 26.0095 34.565 26.6282 35.0983L28.1001 36.3669" stroke="white" stroke-width="2.4" stroke-linecap="round" stroke-linejoin="round"/>
<path d="M35.3001 29.9673L32.1001 37.9673" stroke="white" stroke-width="2.4" stroke-linecap="round" stroke-linejoin="round"/>
</svg>
