<svg width="73" height="73" viewBox="0 0 73 73" fill="none" xmlns="http://www.w3.org/2000/svg">
<circle cx="36.0999" cy="36.5671" r="36" fill="#45C646"/>
<path d="M36.1 50.9669C36.5467 50.9669 36.9621 50.7634 37.7926 50.3564L44.4686 47.0849C47.4229 45.637 48.9 44.9132 48.9 43.7669L48.9 29.3669M36.1 50.9669C35.6533 50.9669 35.2379 50.7634 34.4073 50.3564L27.7313 47.0849C24.7771 45.637 23.3 44.9132 23.3 43.7669L23.3 29.3669M36.1 50.9669L36.1 36.5669" stroke="white" stroke-width="2.4" stroke-linecap="round" stroke-linejoin="round"/>
<path d="M34.4073 22.7778C35.2379 22.3708 35.6532 22.1672 36.1 22.1672C36.5467 22.1672 36.962 22.3708 37.7926 22.7778L44.4686 26.0494C47.4228 27.4971 48.9 28.2209 48.9 29.3672C48.9 30.5135 47.4228 31.2374 44.4686 32.6851L37.7926 35.9567C36.962 36.3637 36.5467 36.5672 36.1 36.5672C35.6532 36.5672 35.2379 36.3637 34.4073 35.9567L27.7313 32.6851C24.7771 31.2374 23.3 30.5135 23.3 29.3672C23.3 28.2209 24.7771 27.4971 27.7313 26.0494L34.4073 22.7778Z" stroke="white" stroke-width="2.4" stroke-linejoin="round"/>
</svg>
