<svg width="61" height="61" viewBox="0 0 61 61" fill="none" xmlns="http://www.w3.org/2000/svg">
<circle cx="30.9" cy="30.167" r="30" fill="#FABB18"/>
<path d="M43.1571 29.2241C40.1574 29.2206 37.2816 28.0275 35.1605 25.9064C33.0394 23.7853 31.8463 20.9095 31.8428 17.9098C31.8428 17.6597 31.7435 17.4199 31.5667 17.2431C31.3899 17.0663 31.15 16.9669 30.9 16.9669C30.6499 16.9669 30.4101 17.0663 30.2333 17.2431C30.0565 17.4199 29.9571 17.6597 29.9571 17.9098C29.9537 20.9095 28.7606 23.7853 26.6395 25.9064C24.5184 28.0275 21.6425 29.2206 18.6428 29.2241C18.3928 29.2241 18.153 29.3234 17.9761 29.5002C17.7993 29.677 17.7 29.9169 17.7 30.1669C17.7 30.417 17.7993 30.6568 17.9761 30.8336C18.153 31.0104 18.3928 31.1098 18.6428 31.1098C21.6425 31.1132 24.5184 32.3063 26.6395 34.4274C28.7606 36.5485 29.9537 39.4244 29.9571 42.4241C29.9571 42.6741 30.0565 42.9139 30.2333 43.0908C30.4101 43.2676 30.6499 43.3669 30.9 43.3669C31.15 43.3669 31.3899 43.2676 31.5667 43.0908C31.7435 42.9139 31.8428 42.6741 31.8428 42.4241C31.8463 39.4244 33.0394 36.5485 35.1605 34.4274C37.2816 32.3063 40.1574 31.1132 43.1571 31.1098C43.4072 31.1098 43.647 31.0104 43.8238 30.8336C44.0007 30.6568 44.1 30.417 44.1 30.1669C44.1 29.9169 44.0007 29.677 43.8238 29.5002C43.647 29.3234 43.4072 29.2241 43.1571 29.2241ZM30.9 37.553C30.2332 35.8858 29.2347 34.3715 27.9651 33.1018C26.6954 31.8322 25.1811 30.8337 23.5139 30.1669C25.1811 29.5002 26.6954 28.5017 27.9651 27.232C29.2347 25.9624 30.2332 24.448 30.9 22.7809C31.5667 24.448 32.5652 25.9624 33.8349 27.232C35.1045 28.5017 36.6189 29.5002 38.286 30.1669C36.6189 30.8337 35.1045 31.8322 33.8349 33.1018C32.5652 34.3715 31.5667 35.8858 30.9 37.553V37.553Z" fill="white"/>
</svg>
