<svg width="61" height="61" viewBox="0 0 61 61" fill="none" xmlns="http://www.w3.org/2000/svg">
<circle cx="30.9" cy="30.7668" r="30" fill="#008EFF"/>
<path d="M23.3006 22.9375L23.3 35.767C23.3 38.4179 25.3631 40.587 27.9713 40.7563L28.3 40.767L37.1288 40.7684C36.7166 41.9328 35.6057 42.767 34.3 42.767L27.3 42.767C23.9863 42.767 21.3 40.0807 21.3 36.767L21.3 25.767C21.3 24.4605 22.1351 23.3491 23.3006 22.9375ZM38.3 18.767C39.9569 18.767 41.3 20.1101 41.3 21.767L41.3 35.767C41.3 37.4238 39.9569 38.767 38.3 38.767L28.3 38.767C26.6432 38.767 25.3 37.4238 25.3 35.767L25.3 21.767C25.3 20.1101 26.6432 18.767 28.3 18.767L38.3 18.767ZM38.3 20.767L28.3 20.767C27.7477 20.767 27.3 21.2147 27.3 21.767L27.3 35.767C27.3 36.3193 27.7477 36.767 28.3 36.767L38.3 36.767C38.8523 36.767 39.3 36.3193 39.3 35.767L39.3 21.767C39.3 21.2147 38.8523 20.767 38.3 20.767Z" fill="white"/>
</svg>
