<svg width="73" height="73" viewBox="0 0 73 73" fill="none" xmlns="http://www.w3.org/2000/svg">
<circle cx="36.5" cy="36.1672" r="36" fill="#008EFF"/>
<path d="M20.4999 34.5672C20.4999 29.2875 20.4999 26.6476 22.1401 25.0074C23.7803 23.3672 26.4202 23.3672 31.6999 23.3672L33.2999 23.3672C38.5796 23.3672 41.2194 23.3672 42.8597 25.0074C44.4999 26.6476 44.4999 29.2875 44.4999 34.5672L44.4999 37.7672C44.4999 43.0469 44.4999 45.6867 42.8597 47.327C41.2194 48.9672 38.5796 48.9672 33.2999 48.9672L31.6999 48.9672C26.4202 48.9672 23.7803 48.9672 22.1401 47.327C20.4999 45.6867 20.4999 43.0469 20.4999 37.7672L20.4999 34.5672Z" stroke="white" stroke-width="2.4"/>
<path d="M44.5 31.2166L44.7014 31.0503C48.0867 28.2572 49.7794 26.8606 51.1397 27.5349C52.5 28.2092 52.5 30.4449 52.5 34.9162L52.5 37.4182C52.5 41.8896 52.5 44.1251 51.1397 44.7995C49.7794 45.4738 48.0867 44.0773 44.7014 41.284L44.5 41.1178" stroke="white" stroke-width="2.4" stroke-linecap="round"/>
<path d="M35.7 34.5673C37.0255 34.5673 38.1 33.4928 38.1 32.1673C38.1 30.8419 37.0255 29.7673 35.7 29.7673C34.3746 29.7673 33.3 30.8419 33.3 32.1673C33.3 33.4928 34.3746 34.5673 35.7 34.5673Z" stroke="white" stroke-width="2.4"/>
</svg>
