<svg width="26" height="22" viewBox="0 0 26 22" fill="none" xmlns="http://www.w3.org/2000/svg">
<path d="M25.9365 3.13258C24.9976 3.5532 24.0066 3.81609 22.9634 3.97382C24.0066 3.34289 24.8411 2.34392 25.2063 1.13464C24.2152 1.71299 23.1199 2.13361 21.9202 2.3965C20.9814 1.39753 19.6252 0.766603 18.1648 0.766602C15.3482 0.766602 13.0532 3.08 13.0532 5.91918C13.0532 6.3398 13.1053 6.70784 13.2097 7.07588C8.98478 6.86557 5.17716 4.81506 2.62137 1.66042C2.20409 2.44908 1.9433 3.29031 1.9433 4.2367C1.9433 6.02433 2.83 7.60165 4.2383 8.54804C3.40375 8.49547 2.62137 8.28516 1.89114 7.91712L1.89114 7.96969C1.89114 10.4934 3.66455 12.5965 6.01171 13.0697C5.59444 13.1748 5.125 13.2274 4.65557 13.2274C4.34262 13.2274 3.9775 13.1748 3.66455 13.1223C4.34262 15.1728 6.22035 16.6975 8.46319 16.6975C6.68978 18.0645 4.4991 18.9058 2.09978 18.9058C1.6825 18.9058 1.26523 18.9058 0.900117 18.8532C3.19512 20.3254 5.85523 21.1666 8.77614 21.1666C18.2169 21.1666 23.3807 13.28 23.3807 6.44495C23.3807 6.23464 23.3807 5.97176 23.3807 5.76145C24.3717 5.07794 25.2584 4.18413 25.9365 3.13258Z" fill="#0EA5E9"/>
</svg>
