<svg width="29" height="8" viewBox="0 0 29 8" fill="none" xmlns="http://www.w3.org/2000/svg">
<path d="M8.14895 2.64532L10.9487 2.64532L10.9487 3.16654L9.84635 3.16654L9.84635 6.1047L9.24211 6.1047L9.24211 3.16654L8.14434 3.16654L8.14895 2.64532ZM10.8288 3.60011L11.3454 3.60011L11.3454 4.08442L11.3546 4.08442C11.3731 4.01524 11.4054 3.95066 11.4515 3.88609C11.4976 3.82151 11.553 3.76155 11.6222 3.71081C11.6867 3.65546 11.7605 3.61395 11.8436 3.58166C11.922 3.54937 12.005 3.53092 12.088 3.53092C12.1526 3.53092 12.1987 3.53554 12.2218 3.53554C12.2448 3.54015 12.2725 3.54476 12.2956 3.54476L12.2956 4.0752C12.2587 4.06597 12.2172 4.06136 12.1757 4.05675C12.1341 4.05214 12.0972 4.04752 12.0557 4.04752C11.9635 4.04752 11.8758 4.06597 11.7928 4.10287C11.7098 4.13977 11.6406 4.19512 11.576 4.26431C11.5161 4.33811 11.4653 4.42575 11.4284 4.53184C11.3915 4.63792 11.3731 4.76246 11.3731 4.90084L11.3731 6.09086L10.8196 6.09086L10.8288 3.60011ZM14.8325 6.1047L14.2882 6.1047L14.2882 5.75415L14.279 5.75415C14.2098 5.8833 14.1083 5.98016 13.9745 6.05857C13.8408 6.13699 13.7024 6.17389 13.564 6.17389C13.2365 6.17389 12.9967 6.09547 12.8491 5.92942C12.7015 5.76799 12.6277 5.51891 12.6277 5.19142L12.6277 3.60011L13.1812 3.60011L13.1812 5.13607C13.1812 5.35747 13.2227 5.5143 13.3103 5.60194C13.3934 5.69419 13.5133 5.74031 13.6655 5.74031C13.7808 5.74031 13.8777 5.72186 13.9561 5.68496C14.0345 5.64806 14.0991 5.60194 14.1452 5.54197C14.1959 5.48201 14.2282 5.40821 14.2513 5.32519C14.2743 5.24216 14.2836 5.14991 14.2836 5.05305L14.2836 3.60011L14.8371 3.60011L14.8371 6.1047L14.8325 6.1047ZM15.7734 5.30212C15.7919 5.46356 15.8518 5.57426 15.9579 5.64345C16.064 5.70802 16.1931 5.74031 16.3407 5.74031C16.3915 5.74031 16.4514 5.7357 16.516 5.72647C16.5806 5.71725 16.6452 5.70341 16.7005 5.68035C16.7605 5.65729 16.8066 5.625 16.8435 5.57887C16.8804 5.53275 16.8989 5.4774 16.8942 5.40821C16.8896 5.33902 16.8666 5.27906 16.8158 5.23294C16.7651 5.18681 16.7051 5.15452 16.6313 5.12224C16.5575 5.09456 16.4699 5.0715 16.373 5.05305C16.2762 5.0346 16.1793 5.01154 16.0778 4.98847C15.9764 4.96541 15.8749 4.93774 15.778 4.90545C15.6812 4.87316 15.5981 4.83165 15.5197 4.77169C15.4459 4.71634 15.3813 4.64715 15.3398 4.55951C15.2937 4.47187 15.2706 4.3704 15.2706 4.24125C15.2706 4.10287 15.3029 3.99217 15.3721 3.89992C15.4367 3.80767 15.5243 3.73387 15.6258 3.67852C15.7273 3.62317 15.8426 3.58166 15.9671 3.5586C16.0917 3.53554 16.2116 3.52631 16.3223 3.52631C16.4514 3.52631 16.576 3.54015 16.6913 3.56782C16.8066 3.5955 16.9173 3.63701 17.0096 3.70159C17.1064 3.76155 17.1848 3.84457 17.2448 3.94144C17.3094 4.0383 17.3463 4.15822 17.3647 4.2966L16.7882 4.2966C16.7605 4.16284 16.7005 4.0752 16.6083 4.02907C16.5114 3.98295 16.4053 3.95989 16.2808 3.95989C16.2439 3.95989 16.1931 3.9645 16.1424 3.96911C16.0871 3.97834 16.0409 3.98756 15.9902 4.00601C15.9441 4.02446 15.9026 4.05214 15.8703 4.08442C15.838 4.11671 15.8195 4.16284 15.8195 4.21819C15.8195 4.28737 15.8426 4.33811 15.8887 4.37962C15.9348 4.42114 15.9948 4.45342 16.0732 4.48571C16.147 4.51339 16.2347 4.53645 16.3315 4.5549C16.4284 4.57335 16.5299 4.59641 16.6313 4.61947C16.7328 4.64254 16.8297 4.67021 16.9265 4.7025C17.0234 4.73479 17.111 4.7763 17.1848 4.83626C17.2586 4.89161 17.3232 4.9608 17.3693 5.04382C17.4155 5.12685 17.4385 5.23294 17.4385 5.35286C17.4385 5.50046 17.4062 5.625 17.337 5.73109C17.2679 5.83256 17.1802 5.9202 17.0741 5.98477C16.968 6.04935 16.8435 6.09547 16.7144 6.12776C16.5806 6.15544 16.4514 6.17389 16.3223 6.17389C16.1655 6.17389 16.0179 6.15544 15.8841 6.11854C15.7503 6.08164 15.6304 6.02629 15.5336 5.9571C15.4367 5.8833 15.3583 5.79566 15.3029 5.68496C15.2476 5.57887 15.2153 5.44972 15.2107 5.29751L15.7688 5.29751L15.7688 5.30212L15.7734 5.30212ZM17.5953 3.60011L18.0151 3.60011L18.0151 2.84366L18.5686 2.84366L18.5686 3.5955L19.0667 3.5955L19.0667 4.00601L18.5686 4.00601L18.5686 5.34364C18.5686 5.4036 18.5732 5.44972 18.5778 5.49585C18.5824 5.53736 18.5963 5.57426 18.6101 5.60194C18.6285 5.62961 18.6562 5.65267 18.6885 5.66651C18.7254 5.68035 18.7715 5.68957 18.8361 5.68957C18.873 5.68957 18.9145 5.68957 18.9514 5.68496C18.9883 5.68035 19.0298 5.67574 19.0667 5.66651L19.0667 6.09547C19.0068 6.1047 18.9468 6.10931 18.8868 6.11392C18.8269 6.12315 18.7715 6.12315 18.707 6.12315C18.5594 6.12315 18.444 6.10931 18.3564 6.08164C18.2688 6.05396 18.1996 6.01245 18.1488 5.96171C18.0981 5.90636 18.0658 5.84179 18.0474 5.76337C18.0289 5.68496 18.0197 5.5881 18.0151 5.48662L18.0151 4.01062L17.5953 4.01062L17.5953 3.59089L17.5953 3.60011ZM19.4542 3.60011L19.9754 3.60011L19.9754 3.94144L19.9846 3.94144C20.063 3.79384 20.1691 3.69236 20.3075 3.62779C20.4459 3.56321 20.5935 3.53092 20.7595 3.53092C20.9579 3.53092 21.1285 3.56321 21.2761 3.63701C21.4237 3.7062 21.5436 3.79845 21.6405 3.92299C21.7374 4.04291 21.8112 4.1859 21.8573 4.34734C21.9034 4.50877 21.9311 4.68405 21.9311 4.86394C21.9311 5.0346 21.908 5.19604 21.8665 5.35286C21.8204 5.50969 21.7558 5.65267 21.6682 5.7726C21.5805 5.89252 21.4698 5.98939 21.3315 6.06319C21.1931 6.13699 21.0363 6.17389 20.8518 6.17389C20.7734 6.17389 20.6903 6.16466 20.6119 6.15082C20.5335 6.13699 20.4551 6.11392 20.3813 6.08164C20.3075 6.04935 20.2383 6.00784 20.1783 5.9571C20.1138 5.90636 20.063 5.8464 20.0215 5.78182L20.0123 5.78182L20.0123 7.03181L19.4588 7.03181L19.4588 3.60011L19.4542 3.60011ZM21.3868 4.85471C21.3868 4.74401 21.373 4.63331 21.3407 4.52722C21.313 4.42114 21.2669 4.32889 21.2069 4.24586C21.147 4.16284 21.0732 4.09826 20.9901 4.04752C20.9025 3.99679 20.801 3.97372 20.6903 3.97372C20.4597 3.97372 20.2844 4.05214 20.1645 4.21357C20.0492 4.37501 19.9892 4.5918 19.9892 4.85932C19.9892 4.98847 20.0031 5.10379 20.0354 5.20987C20.0676 5.31596 20.1092 5.40821 20.1737 5.48662C20.2337 5.56504 20.3075 5.625 20.3951 5.67112C20.4828 5.71725 20.5796 5.74031 20.6949 5.74031C20.8241 5.74031 20.9256 5.71264 21.0132 5.6619C21.1008 5.61116 21.17 5.54197 21.23 5.46356C21.2853 5.38054 21.3269 5.28829 21.3499 5.1822C21.373 5.0715 21.3868 4.96541 21.3868 4.85471ZM22.3601 2.64533L22.9136 2.64533L22.9136 3.16654L22.3601 3.16654L22.3601 2.64533ZM22.3601 3.60011L22.9136 3.60011L22.9136 6.1047L22.3601 6.1047L22.3601 3.60011ZM23.4071 2.64533L23.9606 2.64533L23.9606 6.1047L23.4071 6.1047L23.4071 2.64533ZM25.6488 6.17389C25.4504 6.17389 25.2705 6.1416 25.1137 6.07241C24.9569 6.00322 24.8277 5.91559 24.717 5.80027C24.611 5.68496 24.5279 5.54197 24.4726 5.38054C24.4172 5.2191 24.3849 5.03921 24.3849 4.8501C24.3849 4.66099 24.4126 4.48571 24.4726 4.32427C24.5279 4.16284 24.611 4.02446 24.717 3.90454C24.8231 3.78922 24.9569 3.69698 25.1137 3.6324C25.2705 3.56783 25.4504 3.53092 25.6488 3.53092C25.8471 3.53092 26.027 3.56321 26.1838 3.6324C26.3406 3.69698 26.4698 3.78922 26.5805 3.90454C26.6866 4.01985 26.7696 4.16284 26.825 4.32427C26.8803 4.48571 26.9126 4.66099 26.9126 4.8501C26.9126 5.04382 26.8849 5.2191 26.825 5.38054C26.765 5.54197 26.6866 5.68035 26.5805 5.80027C26.4744 5.91559 26.3406 6.00784 26.1838 6.07241C26.027 6.13699 25.8517 6.17389 25.6488 6.17389ZM25.6488 5.7357C25.7687 5.7357 25.8794 5.70802 25.967 5.65729C26.0593 5.60655 26.1285 5.53736 26.1884 5.45434C26.2484 5.37131 26.2899 5.27445 26.3176 5.17297C26.3453 5.06689 26.3591 4.9608 26.3591 4.8501C26.3591 4.74401 26.3453 4.63792 26.3176 4.53184C26.2899 4.42575 26.2484 4.3335 26.1884 4.25047C26.1285 4.16745 26.0547 4.10288 25.967 4.05214C25.8748 4.0014 25.7687 3.97372 25.6488 3.97372C25.5288 3.97372 25.4181 4.0014 25.3305 4.05214C25.2383 4.10288 25.1691 4.17206 25.1091 4.25047C25.0491 4.3335 25.0076 4.42575 24.98 4.53184C24.9523 4.63792 24.9384 4.74401 24.9384 4.8501C24.9384 4.9608 24.9523 5.06689 24.98 5.17297C25.0076 5.27906 25.0491 5.37131 25.1091 5.45434C25.1691 5.53736 25.2429 5.60655 25.3305 5.65729C25.4228 5.71264 25.5288 5.7357 25.6488 5.7357ZM27.0786 3.60011L27.4984 3.60011L27.4984 2.84366L28.0519 2.84366L28.0519 3.5955L28.55 3.5955L28.55 4.00601L28.0519 4.00601L28.0519 5.34364C28.0519 5.4036 28.0565 5.44972 28.0611 5.49585C28.0657 5.53736 28.0796 5.57426 28.0934 5.60194C28.1118 5.62961 28.1395 5.65267 28.1718 5.66651C28.2087 5.68035 28.2548 5.68957 28.3194 5.68957C28.3563 5.68957 28.3978 5.68957 28.4347 5.68496C28.4716 5.68035 28.5131 5.67574 28.55 5.66651L28.55 6.09547C28.4901 6.1047 28.4301 6.10931 28.3701 6.11392C28.3102 6.12315 28.2548 6.12315 28.1903 6.12315C28.0427 6.12315 27.9273 6.10931 27.8397 6.08164C27.7521 6.05396 27.6829 6.01245 27.6321 5.96171C27.5814 5.90636 27.5491 5.84179 27.5307 5.76337C27.5122 5.68496 27.503 5.5881 27.4984 5.48662L27.4984 4.01062L27.0786 4.01062L27.0786 3.59089L27.0786 3.60011Z" fill="black"/>
<path d="M7.50317 2.64527L4.97091 2.64527L4.19139 0.237549L3.40727 2.64527L0.875008 2.64066L2.92296 4.1305L2.13883 6.53822L4.18678 5.04838L6.23473 6.53822L5.45522 4.1305L7.50317 2.64527Z" fill="#00B67A"/>
<path d="M5.63058 4.67477L5.4553 4.13049L4.19148 5.04838L5.63058 4.67477Z" fill="#005128"/>
</svg>
